0 Name: Austin2
1 15 32 -128 24 1 0 0 0 1 0 0 0 1 228-2500-026.dat
0 STEP
1 15 48 -160 184 0 0 1 1 0 0 0 1 0 228-2500-1253.dat
0 STEP
1 15 32 -160 72 0 -1 0 -1 0 0 0 0 -1 228-2500-1253.dat
0 STEP
1 15 16 -160 184 0 0 -1 -1 0 0 0 1 0 228-2500-1253.dat
0 STEP
1 15 32 -160 -152 0 -1 0 -1 0 0 0 0 -1 228-2500-1253.dat
0 STEP
1 15 0 -176 200 0 0 -1 -1 0 0 0 1 0 228-2500-060.dat
1 15 0 -144 168 0 0 -1 -1 0 0 0 1 0 228-2500-060.dat
0 STEP
1 15 -16 -160 24 0 1 0 -1 0 0 0 0 1 228-2500-026.dat
0 STEP
1 15 -32 -160 184 0 1 0 -1 0 0 0 0 1 228-2500-017.dat
1 15 -32 -160 -72 0 1 0 -1 0 0 0 0 1 228-2500-017.dat
0 STEP
1 15 -16 -176 168 0 0 -1 -1 0 0 0 1 0 228-2500-086.dat
1 15 -16 -144 200 0 0 -1 -1 0 0 0 1 0 228-2500-086.dat
1 15 -16 -176 -56 0 0 -1 -1 0 0 0 1 0 228-2500-086.dat
1 15 -16 -144 -88 0 0 -1 -1 0 0 0 1 0 228-2500-086.dat
0 STEP
0 STEP
1 15 -49 -160 -72 0 0 1 0 -1 0 1 0 0 228-2500-094.dat
0 STEP
1 15 0 -144 -56 0 0 1 0 1 0 -1 0 0 228-2500-060.dat
1 15 0 -176 -88 0 0 1 0 1 0 -1 0 0 228-2500-060.dat
1 15 0 -144 -24 0 0 1 0 1 0 -1 0 0 228-2500-060.dat
1 15 0 -176 -24 0 0 1 0 1 0 -1 0 0 228-2500-060.dat
0 STEP
1 15 0 -160 -72 0 1 0 -1 0 0 0 0 1 228-2560.dat
0 STEP
1 15 -59 -160 -72 0 1 0 -1 0 0 0 0 1 228-2500-1925.dat
0 STEP
1 15 -43 -176 -88 0 0 1 0 -1 0 1 0 0 228-2500-060.dat
1 15 -43 -144 -56 0 0 1 0 -1 0 1 0 0 228-2500-060.dat
1 15 -43 -144 -88 0 0 1 0 -1 0 1 0 0 228-2500-060.dat
1 15 -43 -176 -56 0 0 1 0 -1 0 1 0 0 228-2500-060.dat
0 STEP
1 15 -59 -160 -72 0 0 1 0 -1 0 1 0 0 228-2500-143-v2.dat
0 STEP
1 15 -80 -160 -72 0 0 1 0 -1 0 1 0 0 228-2500-208c02.dat
0 STEP
1 15 -60 -152 184 0 1 0 -1 0 0 0 0 1 228-2500-1925.dat
0 STEP
1 15 -44 -168 168 0 0 1 -1 0 0 0 -1 0 228-2500-060.dat
1 15 -44 -168 200 0 0 1 -1 0 0 0 -1 0 228-2500-060.dat
1 15 -44 -136 168 0 0 1 -1 0 0 0 -1 0 228-2500-060.dat
1 15 -44 -136 200 0 0 1 -1 0 0 0 -1 0 228-2500-060.dat
0 STEP
1 15 -60 -152 184 0 0 1 -1 0 0 0 -1 0 228-2500-143-v2.dat
0 STEP
1 15 -60 -152 184 0 0 1 -1 0 0 0 -1 0 228-2536.dat
0 STEP
1 15 -16 -160 184 0 0 1 0 -1 0 1 0 0 228-2500-083.dat
0 STEP
1 15 32 -192 24 1 0 0 0 -1 0 0 0 -1 228-2500-026.dat
0 STEP
1 15 128 -160 216 0 0 1 1 0 0 0 1 0 228-2500-023.dat
0 STEP
1 15 224 -192 24 -1 0 0 0 -1 0 0 0 1 228-2500-026.dat
1 15 208 -160 184 0 0 -1 -1 0 0 0 1 0 228-2500-1253.dat
1 15 224 -160 72 0 1 0 1 0 0 0 0 -1 228-2500-1253.dat
1 15 240 -160 184 0 0 1 1 0 0 0 1 0 228-2500-1253.dat
1 15 224 -160 -152 0 1 0 1 0 0 0 0 -1 228-2500-1253.dat
1 15 256 -144 200 0 0 1 1 0 0 0 1 0 228-2500-060.dat
1 15 256 -176 168 0 0 1 1 0 0 0 1 0 228-2500-060.dat
1 15 272 -160 24 0 -1 0 1 0 0 0 0 1 228-2500-026.dat
1 15 288 -160 184 0 -1 0 1 0 0 0 0 1 228-2500-017.dat
1 15 288 -160 -72 0 -1 0 1 0 0 0 0 1 228-2500-017.dat
1 15 272 -144 168 0 0 1 1 0 0 0 1 0 228-2500-086.dat
1 15 272 -176 200 0 0 1 1 0 0 0 1 0 228-2500-086.dat
1 15 272 -144 -56 0 0 1 1 0 0 0 1 0 228-2500-086.dat
1 15 272 -176 -88 0 0 1 1 0 0 0 1 0 228-2500-086.dat
1 15 305 -160 -72 0 0 -1 0 1 0 1 0 0 228-2500-094.dat
1 15 256 -176 -56 0 0 -1 0 -1 0 -1 0 0 228-2500-060.dat
1 15 256 -144 -88 0 0 -1 0 -1 0 -1 0 0 228-2500-060.dat
1 15 256 -176 -24 0 0 -1 0 -1 0 -1 0 0 228-2500-060.dat
1 15 256 -144 -24 0 0 -1 0 -1 0 -1 0 0 228-2500-060.dat
1 15 256 -160 -72 0 -1 0 1 0 0 0 0 1 228-2560.dat
1 15 315 -160 -72 0 -1 0 1 0 0 0 0 1 228-2500-1925.dat
1 15 299 -144 -88 0 0 -1 0 1 0 1 0 0 228-2500-060.dat
1 15 299 -176 -56 0 0 -1 0 1 0 1 0 0 228-2500-060.dat
1 15 299 -176 -88 0 0 -1 0 1 0 1 0 0 228-2500-060.dat
1 15 299 -144 -56 0 0 -1 0 1 0 1 0 0 228-2500-060.dat
1 15 315 -160 -72 0 0 -1 0 1 0 1 0 0 228-2500-143-v2.dat
1 15 336 -160 -72 0 0 -1 0 1 0 1 0 0 228-2500-208c02.dat
1 15 316 -168 184 0 -1 0 1 0 0 0 0 1 228-2500-1925.dat
1 15 300 -152 168 0 0 -1 1 0 0 0 -1 0 228-2500-060.dat
1 15 300 -152 200 0 0 -1 1 0 0 0 -1 0 228-2500-060.dat
1 15 300 -184 168 0 0 -1 1 0 0 0 -1 0 228-2500-060.dat
1 15 300 -184 200 0 0 -1 1 0 0 0 -1 0 228-2500-060.dat
1 15 316 -168 184 0 0 -1 1 0 0 0 -1 0 228-2500-143-v2.dat
1 15 316 -168 184 0 0 -1 1 0 0 0 -1 0 228-2536.dat
1 15 272 -160 184 0 0 -1 0 1 0 1 0 0 228-2500-083.dat
1 15 224 -128 24 -1 0 0 0 1 0 0 0 -1 228-2500-026.dat
0 STEP
1 15 128 -272 8 -1 0 0 0 1 0 0 0 -1 228-2540c03.dat
0 STEP
1 15 16 -272 -88 -1 0 0 0 1 0 0 0 -1 228-2500-060.dat
1 15 48 -272 -88 -1 0 0 0 1 0 0 0 -1 228-2500-060.dat
1 15 208 -272 -88 -1 0 0 0 1 0 0 0 -1 228-2500-060.dat
1 15 240 -272 -88 -1 0 0 0 1 0 0 0 -1 228-2500-060.dat
0 STEP
1 15 32 -208 -88 -1 0 0 0 1 0 0 0 -1 228-2500-136.dat
1 15 224 -208 -88 -1 0 0 0 1 0 0 0 -1 228-2500-136.dat
0 STEP
1 15 240 -272 104 -1 0 0 0 1 0 0 0 -1 228-2500-060.dat
1 15 208 -272 104 -1 0 0 0 1 0 0 0 -1 228-2500-060.dat
1 15 16 -272 104 -1 0 0 0 1 0 0 0 -1 228-2500-060.dat
1 15 48 -272 104 -1 0 0 0 1 0 0 0 -1 228-2500-060.dat
0 STEP
1 15 224 -208 104 1 0 0 0 1 0 0 0 1 228-2500-136.dat
1 15 32 -208 104 1 0 0 0 1 0 0 0 1 228-2500-136.dat
0 STEP
1 15 128 -160 -168 0 0 -1 1 0 0 0 -1 0 228-2500-023.dat
0 STEP
1 15 16 -144 -168 0 1 0 1 0 0 0 0 -1 228-2500-086.dat
1 15 48 -176 -168 0 1 0 1 0 0 0 0 -1 228-2500-086.dat
1 15 240 -144 -168 0 1 0 1 0 0 0 0 -1 228-2500-086.dat
1 15 208 -176 -168 0 1 0 1 0 0 0 0 -1 228-2500-086.dat
