0 Name: The thing
1 15 48.140234 -48.139015 16 -0.008727 -0.999962 0 0.999962 -0.008727 0 0 0 1 228-2500-030.dat
0 STEP
1 15 64 -48 304 0 0 -1 0 1 0 1 0 0 228-2500-215.dat
0 STEP
1 15 64 -32 320 0 -0.008727 -0.999962 0 0.999962 -0.008727 1 0 0 228-2500-062.dat
1 15 64 -64 320 0 0 -1 0 1 0 1 0 0 228-2500-062.dat
1 15 64 -32 288 0 0 -1 0 1 0 1 0 0 228-2500-062.dat
1 15 64 -64 288 0 0 -1 0 1 0 1 0 0 228-2500-062.dat
1 15 64 -48 240 0 0 -1 0 1 0 1 0 0 228-2500-062.dat
1 15 64 7.42592 336 0 0 -1 0 1 0 1 0 0 228-2500-060.dat
0 STEP
1 15 80 -48 304 0 0 -1 0 1 0 1 0 0 228-2500-215.dat
0 STEP
1 15 80.139015 -47.859766 -272 0 -0.008727 -0.999962 0 0.999962 -0.008727 1 0 0 228-2500-065a.dat
1 15 80.139015 -47.859766 112 0 -0.008727 -0.999962 0 0.999962 -0.008727 1 0 0 228-2500-065a.dat
1 15 80.139015 -47.859766 -144 0 -0.008727 -0.999962 0 0.999962 -0.008727 1 0 0 228-2500-065a.dat
1 15 80.139015 -47.859766 -16 0 -0.008727 -0.999962 0 0.999962 -0.008727 1 0 0 228-2500-065a.dat
0 STEP
1 15 96 -48 16.000001 0 -1 0 1 0 0 0 0 1 228-2500-030.dat
0 STEP
1 15 80 -64 0.000001 0 0 -1 1 0 0 0 -1 0 228-2500-060.dat
1 15 112 -64 0.000001 0 0 -1 1 0 0 0 -1 0 228-2500-170.dat
1 15 192 -64 0.000001 0 0 -1 1 0 0 0 -1 0 228-2500-067a.dat
0 STEP
1 15 192.000084 -31.999998 0.000001 0 0 1 1 0 0 0 1 0 228-2500-060.dat
1 15 176 -32 0.000001 0 0 1 1 0 0 0 1 0 228-2500-170.dat
1 15 96 -32 0.000001 0 0 1 1 0 0 0 1 0 228-2500-067a.dat
0 STEP
1 15 96 -32 -287.999999 0 0 -1 0 1 0 1 0 0 228-2500-060.dat
1 15 96 -64 -255.999999 0 0 -1 0 1 0 1 0 0 228-2500-060.dat
0 STEP
1 15 112 -16 -271.999999 0 0 -1 0 1 0 1 0 0 228-2500-134-v2.dat
0 STEP
1 15 176 -64 -287.999999 0 0 -1 0 1 0 1 0 0 228-2500-067a.dat
1 15 176 -32 -255.999999 0 0 -1 0 1 0 1 0 0 228-2500-067a.dat
0 STEP
1 15 176 -48 -271.999999 0 0 1 0 1 0 -1 0 0 228-2500-220-v2.dat
0 STEP
1 15 -63.995134 -33.117047 0 0.008727 0 -0.999962 -0.999962 0 -0.008727 0 1 0 228-2500-060.dat
1 15 -47.995744 -32.977415 0 0.008727 0 -0.999962 -0.999962 0 -0.008727 0 1 0 228-2500-170.dat
1 15 32.00121 -32.279255 0 0.008727 0 -0.999962 -0.999962 0 -0.008727 0 1 0 228-2500-067a.dat
1 15 32.280474 -64.278039 0 0.008727 0 0.999962 -0.999962 0 0.008727 0 -1 0 228-2500-060.dat
1 15 16.281083 -64.417671 0 0.008727 0 0.999962 -0.999962 0 0.008727 0 -1 0 228-2500-170.dat
1 15 -63.71587 -65.115831 0 0.008727 0 0.999962 -0.999962 0 0.008727 0 -1 0 228-2500-067a.dat
0 STEP
1 15 32.00121 -32.279255 -256 0 -0.008727 0.999962 0 0.999962 0.008727 -1 0 0 228-2500-060.dat
1 15 32.280474 -64.278036 -288 0 -0.008727 0.999962 0 0.999962 0.008727 -1 0 0 228-2500-060.dat
1 15 15.862187 -16.419496 -272 0 -0.008727 0.999962 0 0.999962 0.008727 -1 0 0 228-2500-134-v2.dat
1 15 -47.71648 -64.976196 -256 0 -0.008727 0.999962 0 0.999962 0.008727 -1 0 0 228-2500-067a.dat
1 15 -47.995744 -32.977415 -288 0 -0.008727 0.999962 0 0.999962 0.008727 -1 0 0 228-2500-067a.dat
1 15 -47.856112 -48.976806 -272 0 -0.008727 -0.999962 0 0.999962 -0.008727 1 0 0 228-2500-220-v2.dat
0 STEP
1 15 64 -16 -271.999999 0 0 1 0 1 0 -1 0 0 228-2500-025.dat
0 STEP
1 15 64 -96 -271.999999 0 0 1 0 1 0 -1 0 0 228-2500-025.dat
0 STEP
1 15 -63.995134 -33.117047 -256 0 -0.008727 0.999962 0 0.999962 0.008727 -1 0 0 228-2500-060.dat
1 15 -63.71587 -65.115828 -288 0 -0.008727 0.999962 0 0.999962 0.008727 -1 0 0 228-2500-060.dat
0 STEP
1 15 -79.854856 -49.260335 -303.999391 0.008727 0.999962 0 -0.999962 0.008727 -0.000038 -0.000038 0 1 228-2500-030.dat
0 STEP
1 15 -79.994578 -33.250586 -575.998781 0.008727 -0.000076 0.999962 -0.999924 0.008727 0.008727 -0.008727 -0.999962 0 228-2500-060.dat
1 15 -79.715303 -65.250586 -544 0.008727 -0.000076 0.999962 -0.999924 0.008727 0.008727 -0.008727 -0.999962 0 228-2500-060.dat
1 15 -79.715325 -65.248149 -480 0.008727 -0.000076 0.999962 -0.999924 0.008727 0.008727 -0.008727 -0.999962 0 228-2500-060.dat
0 STEP
1 15 -80.134205 -17.25181 -575.85854 -0.000076 -0.999962 -0.008727 0.008765 -0.008727 0.999924 -0.999962 0 0.008765 228-2500-036.dat
0 STEP
1 15 -97.389011 126.457307 -590.595754 -0.000076 0.999962 -0.008727 0.008765 0.008727 0.999924 0.999962 0 -0.008765 228-2500-128-v2.dat
0 STEP
1 15 -97.110982 94.599991 -574.876851 0 0.008727 0.999962 0 -0.999962 0.008727 1 0 0 228-2500-060.dat
1 15 -97.11343 94.880463 -606.875622 0 0.008727 0.999962 0 -0.999962 0.008727 1 0 0 228-2500-060.dat
1 15 -96.273222 -1.392666 -575.718299 0 0.008727 -0.999962 0 -0.999962 -0.008727 -1 0 0 228-2500-061.dat
1 15 -96.27567 -1.112194 -607.71707 0 0.008727 -0.999962 0 -0.999962 -0.008727 -1 0 0 228-2500-061.dat
0 STEP
1 15 -96.412854 14.606726 -591.718299 0 -0.999962 -0.008727 0 -0.008727 0.999962 -1 0 0 228-2560.dat
1 15 -80.553085 30.744518 -575.437816 0 -0.008727 -0.999962 0 0.999962 -0.008727 1 0 0 228-2500-060.dat
1 15 -80.555532 31.02499 -607.436587 0 -0.008727 -0.999962 0 0.999962 -0.008727 1 0 0 228-2500-060.dat
0 STEP
1 15 -80.413474 14.747575 -543.718908 0.008727 0.999962 0 -0.999962 0.008727 0.000038 0.000038 0 1 228-2500-020.dat
0 STEP
1 15 -80.834786 63.022543 -607.156105 0 -0.008727 -0.999962 0 0.999962 -0.008727 1 0 0 228-2500-060.dat
1 15 -80.82989 62.461599 -543.158563 0 -0.008727 -0.999962 0 0.999962 -0.008727 1 0 0 228-2500-060.dat
1 15 -81.252442 110.878635 -590.735995 0 -0.008727 -0.999962 0 0.999962 -0.008727 1 0 0 228-2500-060.dat
0 STEP
0 STEP
1 15 -81.109149 94.459771 -527.157344 -0.008727 0.999962 0 0.999962 0.008727 0.000038 0.000038 0 -1 228-2500-034.dat
0 STEP
1 15 -63.715902 -65.112173 -480 0 -0.008727 -0.999962 0 0.999962 -0.008727 1 0 0 228-2500-060.dat
1 15 -63.995155 -33.11461 -447.998781 0 -0.008727 -0.999962 0 0.999962 -0.008727 1 0 0 228-2500-060.dat
1 15 -64.274462 -1.110965 -479.718299 0 -0.008727 -0.999962 0 0.999962 -0.008727 1 0 0 228-2500-060.dat
0 STEP
1 15 -47.576879 -80.971931 -464 0 0.008727 -0.999962 0 -0.999962 -0.008727 -1 0 0 228-2500-137.dat
0 STEP
1 15 64.418856 -79.994507 -464 0 0.008727 -0.999962 0 -0.999962 -0.008727 -1 0 0 228-2500-023.dat
0 STEP
1 15 176.414591 -79.017084 -464 0 0.008727 0.999962 0 -0.999962 0.008727 1 0 0 228-2500-137.dat
1 15 0.421293 -80.553035 -448.000609 -0.999962 0.008727 0.000038 -0.008727 -0.999962 0 0.000038 0 1 228-2500-134-v2.dat
1 15 128.416418 -79.435979 -448.000609 -0.999962 0.008727 0.000038 -0.008727 -0.999962 0 0.000038 0 1 228-2500-134-v2.dat
0 STEP
1 15 -63.715832 -65.112191 -511.999999 0.000076 0.008727 0.999962 -0.008727 -0.999924 0.008727 0.999962 -0.008727 0 228-2500-1061.dat
0 STEP
1 15 -79.433613 -97.52621 -544.560956 0.000076 0.008726 -0.999962 -0.008727 -0.999924 -0.008727 -0.999962 0.008727 0 228-2500-109.dat
0 STEP
1 15 192.556029 -95.152466 -544.560956 0.000076 0.008726 -0.999962 -0.008727 -0.999924 -0.008727 -0.999962 0.008727 0 228-2500-1061.dat
0 STEP
1 15 208.55542 -95.012834 -544.560956 0.000076 0.008727 0.999962 -0.008727 -0.999924 0.008727 0.999962 -0.008727 0 228-2500-109.dat
0 STEP
1 15 -78.877517 -161.240866 -577.1207 0.000076 0.008726 -0.999962 -0.008727 -0.999924 -0.008727 -0.999962 0.008727 0 228-2500-109.dat
1 15 193.112125 -158.867122 -577.1207 0.000076 0.008726 -0.999962 -0.008727 -0.999924 -0.008727 -0.999962 0.008727 0 228-2500-1061.dat
1 15 209.111516 -158.72749 -577.1207 0.000076 0.008727 0.999962 -0.008727 -0.999924 0.008727 0.999962 -0.008727 0 228-2500-109.dat
0 STEP
1 15 79.582578 15.653359 -591.718908 0.000076 0.008727 0.999962 -0.008727 -0.999924 0.008727 0.999962 -0.008727 0 228-2500-263.dat
0 STEP
1 15 119.574353 17.538391 -591.718908 0.000076 0.008727 0.999962 -0.008727 -0.999924 0.008727 0.999962 -0.008727 0 228-2500-143-v2.dat
0 STEP
1 15 103.577399 16.840231 -591.718908 0.000076 0.008727 0.999962 -0.008727 -0.999924 0.008727 0.999962 -0.008727 0 228-2500-232.dat
0 STEP
1 15 103.577704 16.770415 -591.718908 0.008727 -0.999962 0 -0.999962 -0.008727 0 0 0 -1 228-2500-154.dat
1 15 87.578314 16.630783 -591.718908 0.008727 -0.999962 0 -0.999962 -0.008727 0 0 0 -1 228-2500-154.dat
1 15 71.578923 16.491151 -591.718908 0.008727 -0.999962 0 -0.999962 -0.008727 0 0 0 -1 228-2500-154.dat
1 15 55.579532 16.351519 -591.718908 0.008727 -0.999962 0 -0.999962 -0.008727 0 0 0 -1 228-2500-154.dat
1 15 39.580141 16.211887 -591.718908 0.008727 -0.999962 0 -0.999962 -0.008727 0 0 0 -1 228-2500-154.dat
0 STEP
1 15 7.582273 15.723175 -591.718908 0.000076 0.008727 0.999962 -0.008727 -0.999924 0.008727 0.999962 -0.008727 0 228-2500-232.dat
0 STEP
1 15 -8.417118 15.583543 -591.718908 0.000076 0.008727 0.999962 -0.008727 -0.999924 0.008727 0.999962 -0.008727 0 228-2500-143-v2.dat
0 STEP
1 15 -64.411939 14.396671 -591.718908 0.000076 0.008727 0.999962 -0.008727 -0.999924 0.008727 0.999962 -0.008727 0 228-2500-143-v2.dat
1 15 175.578922 16.491151 -591.718908 0.000076 0.008727 0.999962 -0.008727 -0.999924 0.008727 0.999962 -0.008727 0 228-2500-143-v2.dat
0 STEP
1 15 192.274351 -62.87806 -480 0.000076 0.008727 0.999962 -0.008727 -0.999924 0.008727 0.999962 -0.008727 0 228-2500-060.dat
1 15 192.274351 -62.87806 -448 0.000076 0.008727 0.999962 -0.008727 -0.999924 0.008727 0.999962 -0.008727 0 228-2500-060.dat
1 15 191.995087 -30.879276 -448 0.000076 0.008727 0.999962 -0.008727 -0.999924 0.008727 0.999962 -0.008727 0 228-2500-060.dat
1 15 191.995087 -30.879276 -480 0.000076 0.008727 0.999962 -0.008727 -0.999924 0.008727 0.999962 -0.008727 0 228-2500-060.dat
1 15 192 -64 -255.999999 0 0 1 -0.008727 -0.999962 0 0.999962 -0.008727 0 228-2500-060.dat
1 15 192 -32 -287.999999 0 0 1 -0.008727 -0.999962 0 0.999962 -0.008727 0 228-2500-060.dat
0 STEP
1 15 191.999984 -47.999999 -303.999999 0 1 0 -1 0 0 0 0 1 228-2500-030.dat
0 STEP
1 15 208.273755 -62.731146 -609.120703 0.008727 0 0.999962 -0.999962 0 0.008727 0 -1 0 228-2500-060.dat
1 15 207.999895 -31.999997 -575.999999 0 0 1 -1 0 0 0 -1 0 228-2500-060.dat
1 15 207.999905 -64 -543.999999 0 0 1 -1 0 0 0 -1 0 228-2500-060.dat
0 STEP
1 15 223.854267 -14.593341 -577.1207 0 -0.999962 0.008727 0 -0.008727 -0.999962 1 0 0 228-2500-036.dat
0 STEP
1 15 207.435994 33.265199 -609.120703 0.008727 0 0.999962 -0.999962 0 0.008727 0 -1 0 228-2500-060.dat
1 15 207.435995 33.265199 -577.1207 0.008727 0 0.999962 -0.999962 0 0.008727 0 -1 0 228-2500-060.dat
1 15 191.715823 1.119508 -480 0.008727 0 0.999962 -0.999962 0 0.008727 0 -1 0 228-2500-060.dat
0 STEP
1 15 207.999906 15.720131 -543.861586 0 -1 0 -0.999962 0 0.008727 -0.008727 0 -0.999962 228-2500-020.dat
0 STEP
1 15 207.156742 65.26398 -545.120697 0.008727 0 -0.999962 -0.999962 0 -0.008727 0 1 0 228-2500-060.dat
1 15 207.156741 65.26398 -609.120703 0.008727 0 0.999962 -0.999962 0 0.008727 0 -1 0 228-2500-060.dat
1 15 206.737861 113.262153 -593.120701 0.008727 0 0.999962 -0.999962 0 0.008727 0 -1 0 228-2500-060.dat
0 STEP
1 15 190.876884 97.26154 -529.400571 0.008727 0.999962 -0.000076 -0.999924 0.008727 0.008727 0.008727 0 0.999962 228-2500-034.dat
0 STEP
1 15 222.59885 129.260939 -593.121316 -0.000076 -0.999962 -0.008727 0.008765 -0.008727 0.999924 -0.999962 0 0.008765 228-2500-128-v2.dat
1 15 65.885365 143.597518 273.678646 0.000038 -0.000001 1 -1 0.000038 0.000038 -0.000038 -1 -0.000001 228-2500-026.dat
0 STEP
1 15 48.171349 141.597576 306.235322 -0.008727 0.008727 -0.999924 -0.000038 -0.999962 -0.008727 -0.999962 -0.000038 0.008727 228-2500-1253.dat
1 15 82.444501 143.878038 307.674381 0.008727 0.008727 0.999924 0.000038 -0.999962 0.008727 0.999962 -0.000038 -0.008727 228-2500-1253.dat
0 STEP
1 15 64.908041 111.727992 257.968319 0.999809 0.008727 -0.017491 0.008726 -0.999962 -0.000115 -0.017491 -0.000038 -0.999847 228-2500-022.dat
0 STEP
1 15 15.747672 143.298411 305.678653 0.000077 -0.999962 0.008726 -0.008765 -0.008727 -0.999924 0.999962 0 -0.008765 228-2560.dat
0 STEP
1 15 16.444536 63.444723 288.978071 -0.000076 0.008727 0.999962 0.008726 -0.999924 0.008727 0.999962 0.008727 0 228-2500-060.dat
1 15 16.446984 63.164251 320.976845 -0.000076 0.008727 0.999962 0.008726 -0.999924 0.008727 0.999962 0.008727 0 228-2500-060.dat
1 15 15.606808 159.43738 289.819519 0.000076 -0.008727 -0.999962 -0.008726 0.999924 -0.008727 0.999962 0.008727 0 228-2500-061.dat
1 15 15.609256 159.156908 321.818292 0.000076 -0.008727 -0.999962 -0.008726 0.999924 -0.008727 0.999962 0.008727 0 228-2500-061.dat
1 15 15.888499 127.159356 321.53781 0.000076 -0.008727 -0.999962 -0.008726 0.999924 -0.008727 0.999962 0.008727 0 228-2500-061.dat
1 15 15.886051 127.439828 289.539036 0.000076 -0.008727 -0.999962 -0.008726 0.999924 -0.008727 0.999962 0.008727 0 228-2500-061.dat
0 STEP
1 15 79.745215 143.856896 305.678664 0.000076 -0.008727 -0.999962 -0.008726 0.999924 -0.008727 0.999962 0.008727 0 228-2500-079.dat
0 STEP
1 15 16.303684 47.583137 304.837824 0.000076 0.999962 -0.008726 -0.008727 0.008727 0.999924 0.999962 0 0.008727 228-2500-023.dat
0 STEP
1 15 32.30492 79.44289 305.257331 0 -0.008727 0.999962 0.000038 0.999962 0.008727 -1 0.000038 0 228-2500-067a.dat
0 STEP
1 15 30.585597 47.424208 305.521578 0 -0.008727 0.999962 0.000038 0.999962 0.008727 -1 0.000038 0 228-2500-112.dat
1 15 33.585673 47.45039 305.477943 0 -0.008727 0.999962 0.000038 0.999962 0.008727 -1 0.000038 0 228-2500-114.dat
1 15 40.58514 47.511477 305.539032 0 -0.008727 0.999962 0.000038 0.999962 0.008727 -1 0.000038 0 228-2500-114.dat
1 15 48.584835 47.581293 305.539032 -0.000076 -0.008726 0.999962 0.008708 0.999924 0.008727 -0.999962 0.008709 0 228-2500-461.dat
1 15 77.583541 47.834374 305.582667 0.000076 -0.008727 -0.999962 -0.008717 0.999924 -0.008727 0.999962 0.008718 0 228-2500-461.dat
0 STEP
1 15 0.862779 -16.551621 304.279275 0.000076 -0.008727 -0.999962 -0.008717 0.999924 -0.008727 0.999962 0.008718 0 228-2500-065a.dat
1 15 16.862169 -16.411989 304.279275 0.000076 -0.008726 0.999962 -0.008717 0.999924 0.008727 -0.999962 -0.008718 0 228-2500-109.dat
0 STEP
1 15 97.138366 -47.711392 304 0.000076 -0.008727 -0.999962 -0.008717 0.999924 -0.008727 0.999962 0.008718 0 228-2500-083.dat
1 15 33.140803 -48.26992 304 0.000076 -0.008727 -0.999962 -0.008717 0.999924 -0.008727 0.999962 0.008718 0 228-2500-112.dat
0 STEP
1 15 99.138289 -47.693938 304 0 -0.008727 0.999962 0.000038 0.999962 0.008727 -1 0.000038 0 228-2500-112.dat
1 15 77.583731 47.834376 305.539032 0 -0.008727 0.999962 0.000038 0.999962 0.008727 -1 0.000038 0 228-2500-114.dat
1 15 85.583426 47.904192 305.539032 0 -0.008727 0.999962 0.000038 0.999962 0.008727 -1 0.000038 0 228-2500-114.dat
1 15 92.58316 47.965281 305.539032 0 -0.008727 0.999962 0.000038 0.999962 0.008727 -1 0.000038 0 228-2500-112.dat
0 STEP
1 15 97.32325 128.010325 289.404893 -0.017453 -0.008727 0.99981 -0.000114 0.999962 0.008726 -0.999848 0.000038 -0.017453 228-2500-060.dat
1 15 97.602471 160.012765 321.40124 -0.017453 -0.008727 0.99981 -0.000114 0.999962 0.008726 -0.999848 0.000038 -0.017453 228-2500-060.dat
0 STEP
1 15 95.441581 64.264843 304.282398 -0.000152 0.999962 0.008726 0.017453 0.008727 -0.99981 -0.999848 0 -0.017453 228-2500-024.dat
0 STEP
1 15 132.554855 -63.152279 286.050807 -0.008727 -0.000001 -0.999962 0.999962 0.000038 -0.008727 0.000038 -1 0 228-2500-064a.dat
1 15 132.559729 -63.710765 318.045936 -0.008727 -0.000001 -0.999962 0.999962 0.000038 -0.008727 0.000038 -1 0 228-2500-064a.dat
1 15 130.320999 192.798978 290.51886 -0.008727 -0.000001 -0.999962 0.999962 0.000038 -0.008727 0.000038 -1 0 228-2500-064a.dat
1 15 130.325873 192.240493 322.513988 -0.008727 -0.000001 -0.999962 0.999962 0.000038 -0.008727 0.000038 -1 0 228-2500-064a.dat
0 STEP
1 15 132.136995 -47.39722 304 -0.008727 -0.000001 -0.999962 0.999962 0.000038 -0.008727 0.000038 -1 0 228-2500-143-v2.dat
1 15 113.743921 144.153614 305.678664 0 -0.008727 0.999962 0 0.999962 0.008727 -1 0 0 228-2500-112.dat
1 15 120.743616 144.22343 305.678664 -0.000076 -0.008727 0.999962 0.008717 0.999924 0.008727 -0.999962 0.008718 0 228-2500-462.dat
0 STEP
1 15 108.582741 48.017641 305.582667 -0.000076 -0.008727 0.999962 0.008717 0.999924 0.008727 -0.999962 0.008718 0 228-2500-112.dat
1 15 79.583845 47.764558 305.582667 0.000076 -0.008727 -0.999962 -0.008726 0.999924 -0.008727 0.999962 0.008727 0 228-2500-082.dat
1 15 113.582512 48.070003 305.582667 -0.000076 -0.008727 0.999962 0.008717 0.999924 0.008727 -0.999962 0.008718 0 228-2500-228.dat
1 15 128.581979 48.192181 305.582667 -0.000076 -0.008727 0.999962 0.008717 0.999924 0.008727 -0.999962 0.008718 0 228-2500-112.dat
1 15 126.743426 144.267065 305.678664 -0.000076 -0.008727 0.999962 0.008717 0.999924 0.008727 -0.999962 0.008718 0 228-2500-112.dat
0 STEP
1 15 149.44232 64.384989 306.513988 0 -0.999962 -0.008727 0 -0.008727 0.999962 -1 0 0 228-2500-024.dat
0 STEP
1 15 66.445736 144.018894 339.815223 0.008727 0.008727 0.999924 0.999962 0.000038 -0.008727 -0.000114 0.999962 -0.008726 228-2500-026.dat
0 STEP
1 15 242.432342 126.484101 354.28061 0.000038 -0.999962 0.008727 1 0.000038 0.000038 -0.000038 0.008728 0.999962 228-2500-060.dat
1 15 210.714033 158.762159 354.556196 0.000038 -0.999962 0.008727 1 0.000038 0.000038 -0.000038 0.008728 0.999962 228-2500-060.dat
1 15 -109.540849 129.556122 357.352277 0.000038 -0.999962 0.008727 1 0.000038 0.000038 -0.000038 0.008728 0.999962 228-2500-060.dat
1 15 -77.264033 161.275631 357.069378 0.000038 -0.999962 0.008727 1 0.000038 0.000038 -0.000038 0.008728 0.999962 228-2500-060.dat
0 STEP
1 15 -125.401208 145.556134 373.490696 0.000038 -0.999962 -0.008727 -1 -0.000037 -0.000038 0.000038 0.008727 -0.999962 228-2500-134-v2.dat
1 15 258.570757 142.485321 370.139754 -0.000038 0.999962 -0.008727 1 0.000038 -0.000038 -0.000038 -0.008728 -0.999962 228-2500-134-v2.dat
0 STEP
1 15 258.570757 142.485321 370.139754 -0.000038 0.999962 -0.008727 1 0.000038 -0.000038 -0.000038 -0.008728 -0.999962 228-2500-060.dat
1 15 -110.114031 128.590872 257.678211 0.000038 -1 0.000001 1 0.000038 -0.000038 0.000038 0.000001 1 228-2500-060.dat
1 15 -78.11525 159.592691 257.679396 0.000038 -1 0.000001 1 0.000038 -0.000038 0.000038 0.000001 1 228-2500-060.dat
1 15 241.885958 127.60477 257.677861 0.000038 -1 0.000001 1 0.000038 -0.000038 0.000038 0.000001 1 228-2500-060.dat
1 15 209.88475 159.603565 257.679111 0.000038 -1 0.000001 1 0.000038 -0.000038 0.000038 0.000001 1 228-2500-060.dat
0 STEP
1 15 -126.115874 143.595127 241.678835 0.000038 -1 0.000001 1 0.000038 -0.000038 0.000038 0.000001 1 228-2500-134-v2.dat
1 15 257.884133 143.602344 241.678486 -0.000038 1 0.000001 -1 -0.000038 -0.000038 -0.000038 0 1 228-2500-134-v2.dat
0 STEP
1 15 43.598792 110.556135 162.490696 -1 -0.000037 -0.000038 -0.000038 0.999962 0.008727 0.000038 0.008727 -0.999962 228-2500-005-v2.dat
1 15 79.225843 111.856583 161.703144 -0.999962 -0.008727 0 -0.008727 0.999962 0.000038 0 0.000038 -1 228-2500-005-v2.dat
0 STEP
1 15 79.225843 111.856583 161.703144 -0.999962 -0.000076 -0.008727 -0.008727 -0.000038 0.999962 -0.000076 1 0.000038 228-2500-086.dat
1 15 43.598792 110.556135 162.490696 -1 -0.000037 -0.000037 -0.000037 -0.008727 0.999962 -0.000038 0.999962 0.008727 228-2500-086.dat
0 STEP
1 15 59.595147 127.254318 82.63276 1 0.000037 -0.000039 0.000038 -0.999962 0.008727 -0.000038 -0.008727 -0.999962 228-2500-135-v2.dat
0 STEP
1 15 43.596963 110.975047 114.492524 1 0.000037 0.000037 0.000038 -0.008727 -0.999962 -0.000037 0.999962 -0.008727 228-2500-060.dat
1 15 79.225842 111.858427 113.703143 0.999962 -0.000001 0.008727 0.008727 -0.000038 -0.999962 0.000001 1 -0.000038 228-2500-060.dat
0 STEP
1 15 59.73538 111.11407 98.632756 0.008689 0.000037 -0.999962 0.008727 -0.999962 0.000038 -0.999924 -0.008727 -0.008689 228-2500-030.dat
0 STEP
1 15 107.871989 127.251267 83.19066 -0.008689 0.000037 0.999962 -0.008727 -0.999962 -0.000039 0.999924 -0.008727 0.008689 228-2500-126-v2.dat
1 15 11.875613 127.254921 82.356539 -0.000037 -0.008689 -0.999962 0.999962 0.008726 -0.000113 0.008727 -0.999924 0.008688 228-2500-126-v2.dat
0 STEP
1 15 43.593329 159.392124 66.913247 0.008689 -0.999962 0.000039 0.999924 0.008689 -0.008727 0.008726 0.000115 0.999962 228-2500-060.dat
1 15 75.593331 159.393332 66.912018 0.008689 -0.999962 0.000039 0.999924 0.008689 -0.008727 0.008726 0.000115 0.999962 228-2500-060.dat
0 STEP
1 15 59.734174 143.39937 66.080347 -0.000037 -0.008689 -0.999962 0.999962 0.008726 -0.000113 0.008727 -0.999924 0.008688 228-2500-026.dat
0 STEP
1 15 235.584878 143.558923 48.552457 0.000189 0.008689 0.999962 0.999962 -0.008726 -0.000113 0.008725 0.999924 -0.00869 228-2500-135-v2.dat
1 15 -116.401835 143.51906 51.610724 -0.000189 0.008689 -0.999962 -0.999962 -0.008726 0.000113 -0.008725 0.999924 0.008691 228-2500-135-v2.dat
1 15 -132.682299 127.800708 19.612612 -0.008691 0.000113 0.999962 0 1 -0.000113 -0.999962 0 -0.008691 228-2500-060.dat
1 15 -132.676251 159.799492 19.891812 -0.008691 0.000113 0.999962 0 1 -0.000113 -0.999962 0 -0.008691 228-2500-060.dat
1 15 251.309246 159.835739 16.555449 -0.00869 0.000113 0.999962 0 1 -0.000113 -0.999962 0 -0.00869 228-2500-060.dat
1 15 251.303198 127.836955 16.276249 -0.00869 0.000113 0.999962 0 1 -0.000113 -0.999962 0 -0.00869 228-2500-060.dat
0 STEP
1 15 150.14048 -15.611971 306.513988 0 -0.008727 0.999962 0.000038 0.999962 0.008727 -1 0.000038 0 228-2500-064a.dat
1 15 165.308598 79.777086 51.737897 0.008174 0.999962 0.003056 -0.936641 0.008727 -0.350182 -0.350195 0 0.936677 228-2500-015.dat
0 STEP
1 15 181.454683 63.107996 96.698384 0.008727 -0.000076 -0.999962 -0.999924 0.008713 -0.008727 0.008713 0.999962 0 228-2500-060.dat
0 STEP
1 15 180.476715 175.166143 -203.038194 -0.000076 -0.008727 0.999962 0.008751 0.999924 0.008727 -0.999962 0.008751 0 228-2500-067a.dat
0 STEP
1 15 165.650887 40.556735 156.645699 -0.002985 -0.008201 0.999962 0.342018 0.939653 0.008727 -0.939688 0.342031 0 228-2500-060.dat
1 15 165.55309 51.762549 126.672041 -0.002985 -0.008201 0.999962 0.342018 0.939653 0.008727 -0.939688 0.342031 0 228-2500-060.dat
0 STEP
1 15 149.699254 45.944807 141.680715 -0.002985 -0.008201 0.999962 0.342018 0.939653 0.008727 -0.939688 0.342031 0 228-2500-271.dat
0 STEP
1 15 69.964722 15.177761 130.735707 -0.002985 -0.008201 0.999962 0.342018 0.939653 0.008727 -0.939688 0.342031 0 228-2500-021.dat
1 15 69.666607 60.3365 147.223251 -0.002985 -0.008201 0.999962 0.342018 0.939653 0.008727 -0.939688 0.342031 0 228-2500-021.dat
0 STEP
1 15 -10.199136 44.603897 141.750747 0.002985 -0.008201 -0.999962 -0.342018 0.939653 -0.008727 0.939688 0.342031 0 228-2500-271.dat
0 STEP
1 15 165.259699 85.379993 36.751068 0.002985 -0.008201 -0.999962 -0.342018 0.939653 -0.008727 0.939688 0.342031 0 228-2500-060.dat
1 15 164.575121 163.820697 -173.064536 0.002985 -0.008201 -0.999962 -0.342018 0.939653 -0.008727 0.939688 0.342031 0 228-2500-060.dat
0 STEP
1 15 66.400015 124.304719 -69.616513 0.003032 0.008182 0.999962 0.347485 0.937645 -0.008726 -0.937681 0.347498 0 228-2540c03.dat
1 15 -29.235544 166.486569 -173.721703 0 0.008726 0.999962 0 0.999962 -0.008726 -1 0 0 228-2500-060.dat
1 15 -29.935947 86.224094 35.403725 0 0.008726 0.999962 0 0.999962 -0.008726 -1 0 0 228-2500-060.dat
1 15 -26.246285 49.93656 126.715731 0 -0.008727 0.999962 0 0.999962 0.008727 -1 0 0 228-2500-060.dat
1 15 -26.150768 38.991969 156.785763 0 -0.008727 0.999962 0 0.999962 0.008727 -1 0 0 228-2500-060.dat
0 STEP
1 15 -45.985367 80.630677 50.341256 0.008147 0.999962 0.003127 0.93356 -0.008726 0.358315 0.358328 0 -0.933596 228-2500-015.dat
0 STEP
1 15 -48.136062 63.291958 95.153847 0 0.008726 0.999962 -0.000014 0.999962 -0.008726 -1 -0.000014 0 228-2500-060.dat
1 15 -52.424379 95.118933 97.51937 0.001599 -0.000037 -0.999999 -0.008727 0.999962 -0.000051 0.999961 0.008727 0.001599 228-2500-133-v2.dat
1 15 181.17543 95.105557 96.977901 -0.000076 -0.008727 0.999962 0.008735 0.999924 0.008727 -0.999962 0.008735 0 228-2500-133-v2.dat
0 STEP
1 15 -45.134878 178.092254 -203.596764 -0.002985 0.0082 -0.999962 -0.342018 0.939653 0.008726 0.939688 0.342031 0 228-2500-067a.dat
0 STEP
1 15 16.444512 31.444721 368.697584 -0.008727 -0.999962 0 0.999962 -0.008727 0 0 0 1 228-2500-007-v2.dat
0 STEP
1 15 16.444512 31.444721 448.697584 0 0.008727 -0.999962 0 -0.999962 -0.008727 -1 0 0 228-2500-086.dat
1 15 16.444512 31.444721 416.697584 0 0.008727 -0.999962 0 -0.999962 -0.008727 -1 0 0 228-2500-086.dat
1 15 149.721584 32.386205 482.513988 0 0.008727 -0.999962 0 -0.999962 -0.008727 -1 0 0 228-2500-070a.dat
1 15 144.439638 32.561777 384.697584 0 0.008727 -0.999962 0 -0.999962 -0.008727 -1 0 0 228-2500-070a.dat
0 STEP
1 15 33.142063 -48.412601 432.697584 0 0.008727 -0.999962 0 -0.999962 -0.008727 -1 0 0 228-2500-137.dat
1 15 32.862799 -16.413819 432.697584 0 0.008727 -0.999962 0 -0.999962 -0.008727 -1 0 0 228-2500-086.dat
0 STEP
1 15 16.444516 31.444721 320.697584 0.000001 -0.008726 0.999962 -0.000077 0.999962 0.008727 -1 -0.000076 0 228-2500-060.dat
1 15 16.442084 31.723985 288.6988 0.000001 -0.008726 0.999962 -0.000077 0.999962 0.008727 -1 -0.000077 0 228-2500-060.dat
0 STEP
1 15 165.720975 32.525837 370.513988 -0.008727 -0.999962 0 0.999962 -0.008727 0 0 0 1 228-2500-007-v2.dat
1 15 149.721584 32.386205 450.513988 -0.008727 0.000076 0.999962 0.999924 -0.008727 0.008727 0.008727 0.999962 0 228-2500-086.dat
1 15 149.721584 32.386205 418.513988 -0.008727 0.000076 0.999962 0.999924 -0.008727 0.008727 0.008727 0.999962 0 228-2500-086.dat
0 STEP
1 15 134.42154 -47.886378 433.81827 0.000076 0.008727 0.999962 -0.008689 -0.999924 0.008727 0.999962 -0.008689 0 228-2500-137.dat
0 STEP
1 15 149.721584 32.386205 290.513988 0.000076 0.008727 0.999962 -0.008689 -0.999924 0.008727 0.999962 -0.008689 0 228-2500-060.dat
1 15 149.721584 32.386205 322.513988 0.000076 0.008727 0.999962 -0.008689 -0.999924 0.008727 0.999962 -0.008689 0 228-2500-060.dat
0 STEP
1 15 86.578255 -64.304325 433.724947 -0.999961 0.008727 0.001028 -0.008735 -0.999924 -0.00868 0.000952 -0.008689 0.999962 228-2677-1.dat
1 15 101.921064 5.829732 434.317957 0.000076 0.008727 0.999962 -0.008689 -0.999924 0.008727 0.999962 -0.008689 0 228-2500-372.dat
1 15 69.952771 5.55047 434.348414 -0.000076 0.008727 -0.999962 0.008689 -0.999924 -0.008727 -0.999962 -0.008689 0 228-2500-371.dat
0 STEP
1 15 -128.052837 142.834342 69.657277 -0.000115 -0.999963 0.008727 0.999959 -0.000037 0.008955 -0.008954 0.008727 0.999921 228-2500-030.dat
1 15 -127.073625 127.837962 181.79175 0.00019 0.008725 0.999963 0.999663 -0.025947 0.000037 0.025946 0.999624 -0.008727 228-2500-060.dat
1 15 -127.911378 126.978274 85.799287 0.00019 0.008725 0.999963 0.999663 -0.025947 0.000037 0.025946 0.999624 -0.008727 228-2500-060.dat
1 15 -127.635794 159.263536 117.510241 0.00019 0.008725 0.999963 0.999663 -0.025947 0.000037 0.025946 0.999624 -0.008727 228-2500-060.dat
0 STEP
1 15 -189.212773 143.691748 166.190823 0.043788 0.007601 0.999013 0.998723 -0.025553 -0.043581 0.025196 0.999644 -0.008711 228-2500-079.dat
0 STEP
1 15 -127.216282 143.552503 165.511938 -0.000191 0.999963 -0.008726 0.999843 0.000037 -0.017684 -0.017683 -0.008727 -0.999805 228-2560.dat
0 STEP
1 15 -189.678036 145.265909 342.054797 0.000191 0.999963 0.008726 -0.999843 0.000037 0.017684 0.017683 -0.008727 0.999805 228-2500-277.dat
0 STEP
1 15 -207.912064 158.974027 86.210925 -0.00019 -0.008725 0.999963 -0.999663 0.025944 0.000037 -0.025944 -0.999625 -0.008727 228-2500-067a.dat
0 STEP
1 15 -193.02781 142.386079 -41.770682 0.008725 -0.999963 -0.000189 -0.025862 -0.000037 -0.999665 0.999627 0.008727 -0.025861 228-2500-277.dat
0 STEP
1 15 -143.258184 141.687021 165.79014 0.008732 0.043577 -0.999013 0.000299 0.999049 0.043581 0.999961 -0.000679 0.008711 228-2500-114.dat
1 15 -151.250287 142.035669 165.859824 0.008732 0.043577 -0.999013 0.000299 0.999049 0.043581 0.999961 -0.000679 0.008711 228-2500-112.dat
1 15 -151.254277 141.896133 165.927567 0.007601 0.043789 -0.999013 -0.025552 0.998722 0.043581 0.999644 0.025196 0.008711 228-2500-233.dat
1 15 -167.234492 142.732966 165.999192 0.007601 0.043789 -0.999013 -0.025552 0.998722 0.043581 0.999644 0.025196 0.008711 228-2500-143-v2.dat
0 STEP
1 15 -190.374959 144.551414 262.200699 0.008723 0.000263 0.999963 0.025954 -0.999663 0.000037 0.999625 0.025952 -0.008727 228-2500-082.dat
0 STEP
1 15 -150.37645 144.552894 261.851618 0.008723 0.000263 0.999963 0.025954 -0.999663 0.000037 0.999625 0.025952 -0.008727 228-2500-114.dat
1 15 -150.37645 144.552894 261.851618 0.008723 0.000263 0.999963 0.025954 -0.999663 0.000037 0.999625 0.025952 -0.008727 228-2500-112.dat
1 15 -166.375854 144.552302 261.99125 0.008723 0.000263 0.999963 0.025954 -0.999663 0.000037 0.999625 0.025952 -0.008727 228-2500-232.dat
0 STEP
1 15 -130.566077 140.255181 -218.320063 0.008723 0.000263 0.999963 0.025954 -0.999663 0.000037 0.999625 0.025952 -0.008727 228-2500-060.dat
1 15 -130.149037 156.684386 -170.467109 0.008723 0.000263 0.999963 0.025954 -0.999663 0.000037 0.999625 0.025952 -0.008727 228-2500-060.dat
1 15 -130.14537 124.685697 -170.18057 0.008723 0.000263 0.999963 0.025954 -0.999663 0.000037 0.999625 0.025952 -0.008727 228-2500-060.dat
0 STEP
1 15 -122.426083 156.112224 -202.248516 -0.008727 0.999963 -0.000041 0.008913 0.000037 -0.99996 -0.999922 -0.008727 -0.008913 228-2500-031.dat
0 STEP
1 15 -178.274191 140.596411 -185.700834 -0.000114 -0.008726 -0.999963 0.99996 -0.008837 -0.000037 -0.008836 -0.999923 0.008727 228-2500-122.dat
0 STEP
1 15 -146.278993 140.388187 -186.047709 -0.000114 -0.008726 -0.999963 0.99996 -0.008837 -0.000037 -0.008836 -0.999923 0.008727 228-2500-114.dat
1 15 -154.275086 140.597299 -185.910282 -0.000114 -0.008726 -0.999963 0.99996 -0.008837 -0.000037 -0.008836 -0.999923 0.008727 228-2500-112.dat
1 15 -154.275086 140.597299 -185.910282 -0.000114 -0.008726 -0.999963 0.99996 -0.008837 -0.000037 -0.008836 -0.999923 0.008727 228-2500-232.dat
0 STEP
1 15 -130.424467 188.110638 -201.893474 0.008723 0.000263 0.999963 0.025954 -0.999663 0.000037 0.999625 0.025952 -0.008727 228-2500-060.dat
1 15 -130.703735 188.395856 -233.890974 0.008723 0.000263 0.999963 0.025954 -0.999663 0.000037 0.999625 0.025952 -0.008727 228-2500-060.dat
0 STEP
1 15 -130.982959 187.52553 -265.888341 0.000116 -0.999963 -0.008726 -0.999958 -0.000037 -0.009142 0.009141 0.008727 -0.99992 228-2500-147.dat
0 STEP
1 15 -174.375555 144.552006 262.061066 0.000267 -0.008723 0.999963 -0.999651 -0.026403 0.000037 0.026402 -0.999613 -0.008727 228-2500-114.dat
1 15 -222.370156 144.759638 262.547574 0.000263 -0.008723 0.999963 -0.999663 -0.025954 0.000037 0.025952 -0.999625 -0.008727 228-2500-208c02.dat
1 15 -198.374661 144.551118 262.270515 0.000263 -0.008723 0.999963 -0.999663 -0.025954 0.000037 0.025952 -0.999625 -0.008727 228-2500-143-v2.dat
1 15 -214.374065 144.550526 262.410147 0.000263 -0.008723 0.999963 -0.999663 -0.025954 0.000037 0.025952 -0.999625 -0.008727 228-2500-143-v2.dat
0 STEP
1 15 -178.274191 140.596411 -185.700834 0.000263 -0.008723 0.999963 -0.999663 -0.025954 0.000037 0.025952 -0.999625 -0.008727 228-2500-114.dat
1 15 -186.273893 140.596115 -185.631018 0.000263 -0.008723 0.999963 -0.999663 -0.025954 0.000037 0.025952 -0.999625 -0.008727 228-2500-114.dat
1 15 -218.00194 139.764543 -185.344482 0.000263 -0.008723 0.999963 -0.999663 -0.025954 0.000037 0.025952 -0.999625 -0.008727 228-2536.dat
1 15 -210.272998 140.595227 -185.42157 0.000263 -0.008723 0.999963 -0.999663 -0.025954 0.000037 0.025952 -0.999625 -0.008727 228-2500-143-v2.dat
1 15 -218.2727 140.594931 -185.351754 0.000263 -0.008723 0.999963 -0.999663 -0.025954 0.000037 0.025952 -0.999625 -0.008727 228-2500-114.dat
1 15 -234.272104 140.594339 -185.212121 0.000263 -0.008723 0.999963 -0.999663 -0.025954 0.000037 0.025952 -0.999625 -0.008727 228-2500-143-v2.dat
0 STEP
1 15 -212.393308 110.984774 112.268132 0.363528 -0.931583 -0.000037 0.008144 0.003138 0.999962 -0.931547 -0.363515 0.008727 228-2500-060.dat
1 15 -212.11526 111.264038 80.270564 0.363528 -0.931583 -0.000037 0.008144 0.003138 0.999962 -0.931547 -0.363515 0.008727 228-2500-060.dat
0 STEP
1 15 -244.115849 127.122613 96.409582 0 -1 0.000037 -0.008727 -0.000037 -0.999962 0.999962 0 -0.008727 228-2500-135-v2.dat
1 15 -223.911464 158.973435 86.350557 -0.008727 0.000037 -0.999962 -0.000001 -1 -0.000037 -0.999962 0.000001 0.008727 228-2500-170.dat
1 15 -239.910855 158.972843 86.490189 -0.008727 0.000037 -0.999962 -0.000001 -1 -0.000037 -0.999962 0.000001 0.008727 228-2500-060.dat
0 STEP
1 15 -255.489589 144.473111 134.779185 -0.000113 0.999962 -0.008726 0.999962 0.000037 -0.008727 -0.008727 -0.008727 -0.999924 228-2500-027.dat
0 STEP
1 15 -238.231794 129.731023 278.76821 -0.000037 -0.008727 -0.999962 1 0 -0.000037 0 -0.999962 0.008727 228-2500-060.dat
1 15 -238.514658 161.450535 246.491399 0.008727 -0.000037 -0.999962 0 1 -0.000037 0.999962 0 0.008727 228-2500-060.dat
0 STEP
1 15 -238.374439 145.449946 262.490195 0.008727 0.999962 -0.000037 -0.000037 0.000037 1 0.999962 -0.008727 0.000037 228-2500-017.dat
0 STEP
1 15 61.1467 124.406132 -252.136401 -0.000037 -0.008727 -0.999962 1 0.000037 -0.000037 0.000037 -0.999962 0.008727 228-2500-009-v2.dat
1 15 157.143044 124.409075 -252.974193 -0.999962 -0.008727 -0.000001 0.000001 0.000037 -1 0.008727 -0.999962 -0.000037 228-2500-128-v2.dat
1 15 -34.849644 124.40197 -251.298608 -0.999962 -0.008727 -0.000001 0.000001 0.000037 -1 0.008727 -0.999962 -0.000037 228-2500-128-v2.dat
0 STEP
1 15 -82.708184 124.400211 -234.880322 -0.000037 -0.008727 -0.999962 1 0.000037 -0.000037 0.000037 -0.999962 0.008727 228-2500-126-v2.dat
1 15 205.280848 124.410869 -237.393698 0.008727 -0.00869 0.999924 -0.000037 -0.999962 -0.00869 0.999962 0.000039 -0.008727 228-2500-126-v2.dat
0 STEP
1 15 -114.70814 156.399027 -234.599863 0.008727 0.000037 0.999962 -0.000037 -1 0.000037 0.999962 -0.000037 -0.008727 228-2500-064a.dat
1 15 -114.706966 124.399027 -234.601058 0.008727 0.000037 0.999962 -0.000037 -1 0.000037 0.999962 -0.000037 -0.008727 228-2500-064a.dat
1 15 -114.427702 124.397843 -202.602276 0.008727 0.000037 0.999962 -0.000037 -1 0.000037 0.999962 -0.000037 -0.008727 228-2500-064a.dat
1 15 221.558899 124.270645 -205.534549 0.008727 -0.00869 0.999924 -0.000037 -0.999962 -0.00869 0.999962 0.000039 -0.008727 228-2500-064a.dat
1 15 221.279635 124.271829 -237.53333 0.008727 -0.00869 0.999924 -0.000037 -0.999962 -0.00869 0.999962 0.000039 -0.008727 228-2500-064a.dat
1 15 221.557714 156.27062 -237.534573 0.008727 -0.00869 0.999924 -0.000037 -0.999962 -0.00869 0.999962 0.000039 -0.008727 228-2500-064a.dat
1 15 29.00586 124.126286 -267.856516 0.99981 0.008727 -0.017416 -0.017416 -0.000037 -0.999848 -0.008726 0.999962 0.000115 228-2500-135-v2.dat
1 15 93.003422 124.128655 -268.415045 0.99981 0.008727 -0.017416 -0.017416 -0.000037 -0.999848 -0.008726 0.999962 0.000115 228-2500-135-v2.dat
0 STEP
1 15 -50.709425 108.401395 -235.160178 0.999962 0.008727 -0.000001 -0.000001 -0.000037 -1 -0.008727 0.999962 -0.000037 228-2500-060.dat
1 15 -18.710644 108.401361 -235.439442 0.999962 0.008727 -0.000001 -0.000001 -0.000037 -1 -0.008727 0.999962 -0.000037 228-2500-060.dat
1 15 12.450976 108.408558 -299.713837 0.99981 0.008727 -0.017416 -0.017416 -0.000037 -0.999848 -0.008726 0.999962 0.000115 228-2500-060.dat
1 15 44.444903 107.851236 -299.993079 0.99981 0.008727 -0.017416 -0.017416 -0.000037 -0.999848 -0.008726 0.999962 0.000115 228-2500-060.dat
1 15 76.448538 108.410927 -300.272365 0.99981 0.008727 -0.017416 -0.017416 -0.000037 -0.999848 -0.008726 0.999962 0.000115 228-2500-060.dat
1 15 108.442466 107.853604 -300.551607 0.99981 0.008727 -0.017416 -0.017416 -0.000037 -0.999848 -0.008726 0.999962 0.000115 228-2500-060.dat
1 15 141.283263 108.4085 -236.835762 0.999962 0.008727 -0.000001 -0.000001 -0.000037 -1 -0.008727 0.999962 -0.000037 228-2500-060.dat
1 15 173.282044 108.408466 -237.115026 0.999962 0.008727 -0.000001 -0.000001 -0.000037 -1 -0.008727 0.999962 -0.000037 228-2500-060.dat
1 15 60.588141 92.690303 -252.133921 -0.008651 0.017416 0.999811 0.000036 0.999848 -0.017416 -0.999963 -0.000115 -0.00865 228-2500-1600.dat
0 STEP
1 15 -67.387655 94.919594 -251.026721 0.000038 -0.999848 0.017416 -0.000116 0.017416 0.999848 -1 -0.00004 -0.000115 228-2500-109.dat
1 15 188.563937 90.461011 -253.241121 0.000038 -0.999848 0.017416 -0.000116 0.017416 0.999848 -1 -0.00004 -0.000115 228-2500-109.dat
0 STEP
1 15 -67.805639 70.923235 -251.023961 0.000038 -0.999848 0.017416 -0.000116 0.017416 0.999848 -1 -0.00004 -0.000115 228-2500-063.dat
1 15 188.145953 66.464652 -253.238361 0.000038 -0.999848 0.017416 -0.000116 0.017416 0.999848 -1 -0.00004 -0.000115 228-2500-063.dat
1 15 -68.362951 38.928088 -251.020281 0.00004 -0.999848 -0.017416 0.000114 0.017416 -0.999848 1 0.000038 0.000115 228-2500-172.dat
1 15 187.588642 34.469505 -253.234681 0.00004 -0.999848 -0.017416 0.000114 0.017416 -0.999848 1 0.000038 0.000115 228-2500-172.dat
0 STEP
1 15 -60.364164 38.78876 -251.020583 -0.00004 0.017416 0.999848 -0.000114 0.999848 -0.017416 -1 -0.000115 -0.000038 228-2500-072a.dat
1 15 147.604295 35.166232 -251.028448 0.017409 0.00049 0.999849 0.99951 0.025987 -0.017416 -0.025991 0.999662 -0.000038 228-2500-109.dat
1 15 163.601881 34.887576 -251.029053 0.017409 0.00049 0.999849 0.99951 0.025987 -0.017416 -0.025991 0.999662 -0.000038 228-2500-109.dat
1 15 179.589855 34.608833 -253.234379 0.017409 0.00049 0.999849 0.99951 0.025987 -0.017416 -0.025991 0.999662 -0.000038 228-2500-109.dat
0 STEP
1 15 254.755415 142.492908 162.166335 0.000038 -0.999962 -0.008728 -1 -0.000038 0.000037 -0.000037 0.008728 -0.999962 228-2560.dat
1 15 254.057777 126.495855 82.168788 0.000038 0.008728 -0.999962 -1 -0.000037 -0.000038 -0.000037 0.999962 0.008728 228-2500-060.dat
1 15 254.335868 158.494676 114.168758 0.000038 0.008728 -0.999962 -1 -0.000037 -0.000038 -0.000037 0.999962 0.008728 228-2500-060.dat
1 15 254.89446 158.492318 178.16632 0.000038 0.008728 -0.999962 -1 -0.000037 -0.000038 -0.000037 0.999962 0.008728 228-2500-060.dat
1 15 254.895666 126.492318 178.165131 0.000038 0.008728 -0.999962 -1 -0.000037 -0.000038 -0.000037 0.999962 0.008728 228-2500-060.dat
1 15 318.752977 142.49534 161.607743 0.000038 0.008728 -0.999962 -1 -0.000037 -0.000038 -0.000037 0.999962 0.008728 228-2500-079.dat
0 STEP
1 15 255.91745 142.49652 66.152536 0.000038 0.999962 0.008728 -1 0.000038 -0.000037 -0.000037 -0.008728 0.999962 228-2500-030.dat
0 STEP
1 15 272.055886 158.496539 82.012873 0.000038 -0.008728 0.999962 -1 0.000037 0.000038 -0.000037 -0.999962 -0.008728 228-2500-067a.dat
1 15 318.937476 142.503693 -46.40179 0.008728 -0.999962 0.000037 -0.000075 -0.000038 -1 0.999962 0.008728 -0.000076 228-2500-277.dat
1 15 322.289019 142.488932 337.58236 -0.000037 -0.999962 0.008728 1 -0.000038 -0.000113 0.000114 0.008728 0.999962 228-2500-277.dat
0 STEP
1 15 272.754729 142.493592 162.009231 -0.000038 0.008728 0.999962 1 -0.000037 0.000038 0.000037 0.999962 -0.008728 228-2500-114.dat
1 15 280.754424 142.493896 161.939407 -0.000038 0.008728 0.999962 1 -0.000037 0.000038 0.000037 0.999962 -0.008728 228-2500-112.dat
1 15 288.75412 142.4942 161.869583 -0.000038 0.008728 0.999962 1 -0.000037 0.000038 0.000037 0.999962 -0.008728 228-2500-233.dat
1 15 304.75351 142.494808 161.729935 -0.000038 0.008728 0.999962 1 -0.000037 0.000038 0.000037 0.999962 -0.008728 228-2500-143-v2.dat
0 STEP
1 15 321.590789 142.491879 257.586631 -0.000038 -0.008728 -0.999962 1 -0.000037 -0.000038 -0.000037 -0.999962 0.008728 228-2500-082.dat
1 15 281.592313 142.490359 257.935751 -0.000036 -0.008728 -0.999962 1 0.000191 -0.000038 0.000192 -0.999962 0.008728 228-2500-114.dat
1 15 281.592313 142.490359 257.935751 -0.000036 -0.008728 -0.999962 1 0.000191 -0.000038 0.000192 -0.999962 0.008728 228-2500-112.dat
1 15 305.591398 142.491271 257.726279 0.008728 -0.000038 -0.999962 0.000037 1 -0.000038 0.999962 -0.000037 0.008728 228-2500-232.dat
0 STEP
1 15 253.822127 158.505362 -173.837728 0.008728 -0.000038 -0.999962 0.000037 1 -0.000038 0.999962 -0.000037 0.008728 228-2500-060.dat
1 15 253.823333 126.505362 -173.838918 0.008728 -0.000038 -0.999962 0.000037 1 -0.000038 0.999962 -0.000037 0.008728 228-2500-060.dat
1 15 253.403778 150.50713 -221.836496 0.008728 -0.000038 -0.999962 0.000037 1 -0.000038 0.999962 -0.000037 0.008728 228-2500-060.dat
0 STEP
1 15 245.543136 158.784327 -205.765467 0.000038 -0.999962 0.008728 0.999962 -0.000038 -0.008727 0.008727 0.008728 0.999924 228-2500-031.dat
0 STEP
1 15 285.96172 142.926688 -190.118256 -0.000038 0.008728 0.999962 1 -0.000037 0.000038 0.000037 0.999962 -0.008728 228-2500-122.dat
1 15 269.96233 142.92608 -189.978608 -0.000038 0.008728 0.999962 1 -0.000037 0.000038 0.000037 0.999962 -0.008728 228-2500-114.dat
1 15 277.962025 142.926384 -190.048432 -0.000038 0.008728 0.999962 1 -0.000037 0.000038 0.000037 0.999962 -0.008728 228-2500-112.dat
1 15 277.961111 142.926088 -190.118243 -0.000038 0.008728 0.999962 1 -0.000037 0.000038 0.000037 0.999962 -0.008728 228-2500-232.dat
0 STEP
1 15 253.264757 191.062682 -237.553584 -0.000038 0.008728 0.999962 1 -0.000037 0.000038 0.000037 0.999962 -0.008728 228-2500-060.dat
1 15 253.544053 190.783412 -205.556021 -0.000038 0.008728 0.999962 1 -0.000037 0.000038 0.000037 0.999962 -0.008728 228-2500-060.dat
0 STEP
1 15 268.983023 191.061509 -269.831634 0.000038 -0.999962 -0.008728 -1 -0.000038 -0.000037 0.000037 0.008728 -0.999962 228-2500-147.dat
0 STEP
1 15 313.591094 142.491575 257.656455 0.000038 0.008728 -0.999962 -1 -0.000037 -0.000038 -0.000037 0.999962 0.008728 228-2500-114.dat
1 15 321.590789 142.491879 257.586631 0.000038 0.008728 -0.999962 -1 -0.000037 -0.000038 -0.000037 0.999962 0.008728 228-2500-114.dat
1 15 361.733739 142.495775 257.514315 0.000038 0.008728 -0.999962 -1 -0.000037 -0.000038 -0.000037 0.999962 0.008728 228-2500-208c02.dat
1 15 345.589875 142.492791 257.377159 0.000038 0.008728 -0.999962 -1 -0.000037 -0.000038 -0.000037 0.999962 0.008728 228-2500-143-v2.dat
1 15 361.58957 142.493095 257.307335 0.000038 0.008728 -0.999962 -1 -0.000037 -0.000038 -0.000037 0.999962 0.008728 228-2500-143-v2.dat
0 STEP
1 15 301.961111 142.927296 -190.257904 0.000038 0.008728 -0.999962 -1 -0.000037 -0.000038 -0.000037 0.999962 0.008728 228-2500-114.dat
1 15 309.960806 142.9276 -190.327728 0.000038 0.008728 -0.999962 -1 -0.000037 -0.000038 -0.000037 0.999962 0.008728 228-2500-114.dat
1 15 341.960501 142.929112 -190.537213 0.000038 0.008728 -0.999962 -1 -0.000037 -0.000038 -0.000037 0.999962 0.008728 228-2536.dat
1 15 333.959892 142.928512 -190.5372 0.000038 0.008728 -0.999962 -1 -0.000037 -0.000038 -0.000037 0.999962 0.008728 228-2500-143-v2.dat
1 15 341.959587 142.928816 -190.607024 0.000038 0.008728 -0.999962 -1 -0.000037 -0.000038 -0.000037 0.999962 0.008728 228-2500-114.dat
1 15 357.958978 142.929424 -190.746672 0.000038 0.008728 -0.999962 -1 -0.000037 -0.000038 -0.000037 0.999962 0.008728 228-2500-143-v2.dat
0 STEP
1 15 331.58602 110.964102 116.994948 0 -1 0.000037 -0.008727 -0.000037 -0.999962 0.999962 0 -0.008727 228-2500-060.dat
1 15 331.864068 111.243366 84.99738 0 -1 0.000037 -0.008727 -0.000037 -0.999962 0.999962 0 -0.008727 228-2500-060.dat
0 STEP
1 15 363.863464 127.104308 101.136436 0.000001 1 0.000037 0.008727 0.000037 -0.999962 -0.999962 0.000001 -0.008727 228-2500-135-v2.dat
0 STEP
1 15 352.052839 158.499579 81.314633 -0.008728 0.000038 -0.999962 -0.000001 -1 -0.000038 -0.999962 0.000001 0.008728 228-2500-170.dat
1 15 368.05223 158.500187 81.174985 -0.008728 0.000038 -0.999962 -0.000001 -1 -0.000038 -0.999962 0.000001 0.008728 228-2500-060.dat
0 STEP
1 15 368.473139 140.676114 129.320701 0.000114 0.999962 0.008727 -0.999962 0.000038 0.008727 0.008727 -0.008728 0.999924 228-2500-027.dat
1 15 369.448774 157.652948 241.172546 0.000038 -0.008728 0.999962 -1 0.000001 0.000038 -0.000001 -0.999962 -0.008728 228-2500-060.dat
1 15 369.731702 125.933436 273.449357 0.000038 -0.008728 0.999962 -1 0.000001 0.000038 -0.000001 -0.999962 -0.008728 228-2500-060.dat
0 STEP
1 15 369.58903 141.652933 257.171917 0.000038 -0.999962 -0.008728 -1 -0.000038 0.000001 -0.000001 0.008728 -0.999962 228-2500-017.dat
0 STEP
1 15 385.16889 157.374286 209.035336 0.000038 -0.008728 0.999962 -1 0.000038 0.000038 -0.000038 -0.999962 -0.008728 228-2500-060.dat
1 15 386.010367 126.213313 305.307272 0.000038 -0.008728 0.999962 -1 0.000038 0.000038 -0.000038 -0.999962 -0.008728 228-2500-060.dat
0 STEP
1 15 401.588437 141.372462 257.032894 0.000038 -0.999962 -0.008728 -1 -0.000038 0.000038 -0.000038 0.008728 -0.999962 228-2500-019.dat
