0 Name: The thing
1 15 48.140234 -48.139015 16 -0.008727 -0.999962 0 0.999962 -0.008727 0 0 0 1 228-2500-030.dat
0 STEP
1 15 64 -48 304 0 0 -1 0 1 0 1 0 0 228-2500-215.dat
0 STEP
1 15 64 -32 320 0 -0.008727 -0.999962 0 0.999962 -0.008727 1 0 0 228-2500-062.dat
1 15 64 -64 320 0 0 -1 0 1 0 1 0 0 228-2500-062.dat
1 15 64 -32 288 0 0 -1 0 1 0 1 0 0 228-2500-062.dat
1 15 64 -64 288 0 0 -1 0 1 0 1 0 0 228-2500-062.dat
1 15 64 -48 240 0 0 -1 0 1 0 1 0 0 228-2500-062.dat
1 15 64 7.42592 336 0 0 -1 0 1 0 1 0 0 228-2500-060.dat
0 STEP
1 15 80 -48 304 0 0 -1 0 1 0 1 0 0 228-2500-215.dat
0 STEP
1 15 80.139015 -47.859766 -272 0 -0.008727 -0.999962 0 0.999962 -0.008727 1 0 0 228-2500-065a.dat
1 15 80.139015 -47.859766 112 0 -0.008727 -0.999962 0 0.999962 -0.008727 1 0 0 228-2500-065a.dat
1 15 80.139015 -47.859766 -144 0 -0.008727 -0.999962 0 0.999962 -0.008727 1 0 0 228-2500-065a.dat
1 15 80.139015 -47.859766 -16 0 -0.008727 -0.999962 0 0.999962 -0.008727 1 0 0 228-2500-065a.dat
0 STEP
1 15 96 -48 16.000001 0 -1 0 1 0 0 0 0 1 228-2500-030.dat
0 STEP
1 15 96 -64 128.000001 0 0 -1 1 0 0 0 -1 0 228-2500-060.dat
1 15 112 -64 128.000001 0 0 -1 1 0 0 0 -1 0 228-2500-170.dat
1 15 176 -64 128.000001 0 0 -1 1 0 0 0 -1 0 228-2500-067a.dat
0 STEP
1 15 176 -32 128.000001 0 0 1 1 0 0 0 1 0 228-2500-060.dat
1 15 160 -32 128.000001 0 0 1 1 0 0 0 1 0 228-2500-170.dat
1 15 96 -32 128.000001 0 0 1 1 0 0 0 1 0 228-2500-067a.dat
0 STEP
1 15 96 -32 -287.999999 0 0 -1 0 1 0 1 0 0 228-2500-060.dat
1 15 96 -64 -255.999999 0 0 -1 0 1 0 1 0 0 228-2500-060.dat
0 STEP
1 15 112 -16 -271.999999 0 0 -1 0 1 0 1 0 0 228-2500-134-v2.dat
0 STEP
1 15 176 -64 -287.999999 0 0 -1 0 1 0 1 0 0 228-2500-067a.dat
1 15 176 -32 -255.999999 0 0 -1 0 1 0 1 0 0 228-2500-067a.dat
0 STEP
1 15 176 -48 -271.999999 0 0 1 0 1 0 -1 0 0 228-2500-220-v2.dat
0 STEP
1 15 -63.995134 -33.117047 128 0.008727 0 -0.999962 -0.999962 0 -0.008727 0 1 0 228-2500-060.dat
1 15 -47.995744 -32.977415 128 0.008727 0 -0.999962 -0.999962 0 -0.008727 0 1 0 228-2500-170.dat
1 15 32.00121 -32.279255 128 0.008727 0 -0.999962 -0.999962 0 -0.008727 0 1 0 228-2500-067a.dat
1 15 32.280474 -64.278039 128 0.008727 0 0.999962 -0.999962 0 0.008727 0 -1 0 228-2500-060.dat
1 15 16.281083 -64.417671 128 0.008727 0 0.999962 -0.999962 0 0.008727 0 -1 0 228-2500-170.dat
1 15 -63.71587 -65.115831 128 0.008727 0 0.999962 -0.999962 0 0.008727 0 -1 0 228-2500-067a.dat
0 STEP
1 15 32.00121 -32.279255 -256 0 -0.008727 0.999962 0 0.999962 0.008727 -1 0 0 228-2500-060.dat
1 15 32.280474 -64.278036 -288 0 -0.008727 0.999962 0 0.999962 0.008727 -1 0 0 228-2500-060.dat
1 15 15.862187 -16.419496 -272 0 -0.008727 0.999962 0 0.999962 0.008727 -1 0 0 228-2500-134-v2.dat
1 15 -47.71648 -64.976196 -256 0 -0.008727 0.999962 0 0.999962 0.008727 -1 0 0 228-2500-067a.dat
1 15 -47.995744 -32.977415 -288 0 -0.008727 0.999962 0 0.999962 0.008727 -1 0 0 228-2500-067a.dat
1 15 -47.856112 -48.976806 -272 0 -0.008727 -0.999962 0 0.999962 -0.008727 1 0 0 228-2500-220-v2.dat
0 STEP
1 15 64 -16 -271.999999 0 0 1 0 1 0 -1 0 0 228-2500-025.dat
0 STEP
1 15 64 -96 -271.999999 0 0 1 0 1 0 -1 0 0 228-2500-025.dat
0 STEP
1 15 -63.995134 -33.117047 -256 0 -0.008727 0.999962 0 0.999962 0.008727 -1 0 0 228-2500-060.dat
1 15 -63.71587 -65.115828 -288 0 -0.008727 0.999962 0 0.999962 0.008727 -1 0 0 228-2500-060.dat
0 STEP
1 15 -79.854856 -49.260335 -175.999391 0.008727 0.999962 0 -0.999962 0.008727 -0.000038 -0.000038 0 1 228-2500-030.dat
0 STEP
1 15 -79.994578 -33.250586 -447.998781 0.008727 -0.000076 0.999962 -0.999924 0.008727 0.008727 -0.008727 -0.999962 0 228-2500-060.dat
1 15 -79.715303 -65.250586 -416 0.008727 -0.000076 0.999962 -0.999924 0.008727 0.008727 -0.008727 -0.999962 0 228-2500-060.dat
1 15 -79.715325 -65.248149 -480 0.008727 -0.000076 0.999962 -0.999924 0.008727 0.008727 -0.008727 -0.999962 0 228-2500-060.dat
0 STEP
1 15 -80.134205 -17.25181 -447.85854 -0.000076 -0.999962 -0.008727 0.008765 -0.008727 0.999924 -0.999962 0 0.008765 228-2500-036.dat
0 STEP
1 15 -97.389011 126.457307 -462.595754 -0.000076 0.999962 -0.008727 0.008765 0.008727 0.999924 0.999962 0 -0.008765 228-2500-128-v2.dat
0 STEP
1 15 -97.110982 94.599991 -446.876851 0 0.008727 0.999962 0 -0.999962 0.008727 1 0 0 228-2500-060.dat
1 15 -97.11343 94.880463 -478.875622 0 0.008727 0.999962 0 -0.999962 0.008727 1 0 0 228-2500-060.dat
1 15 -96.273222 -1.392666 -447.718299 0 0.008727 -0.999962 0 -0.999962 -0.008727 -1 0 0 228-2500-061.dat
1 15 -96.27567 -1.112194 -479.71707 0 0.008727 -0.999962 0 -0.999962 -0.008727 -1 0 0 228-2500-061.dat
0 STEP
1 15 -96.412854 14.606725 -463.718299 0 -0.999962 -0.008727 0 -0.008727 0.999962 -1 0 0 228-2560.dat
1 15 -80.553085 30.744518 -447.437816 0 -0.008727 -0.999962 0 0.999962 -0.008727 1 0 0 228-2500-060.dat
1 15 -80.555532 31.02499 -479.436587 0 -0.008727 -0.999962 0 0.999962 -0.008727 1 0 0 228-2500-060.dat
0 STEP
1 15 -80.413474 14.747575 -415.718908 0.008727 0.999962 0 -0.999962 0.008727 0.000038 0.000038 0 1 228-2500-020.dat
0 STEP
1 15 -80.834786 63.022543 -479.156105 0 -0.008727 -0.999962 0 0.999962 -0.008727 1 0 0 228-2500-060.dat
1 15 -80.82989 62.461599 -415.158563 0 -0.008727 -0.999962 0 0.999962 -0.008727 1 0 0 228-2500-060.dat
1 15 -81.252442 110.878635 -462.735995 0 -0.008727 -0.999962 0 0.999962 -0.008727 1 0 0 228-2500-060.dat
0 STEP
0 STEP
1 15 -81.109149 94.459771 -399.157344 -0.008727 0.999962 0 0.999962 0.008727 0.000038 0.000038 0 -1 228-2500-034.dat
0 STEP
1 15 -63.715902 -65.112173 -384 0 -0.008727 -0.999962 0 0.999962 -0.008727 1 0 0 228-2500-060.dat
1 15 -63.995155 -33.11461 -351.998781 0 -0.008727 -0.999962 0 0.999962 -0.008727 1 0 0 228-2500-060.dat
1 15 -64.274462 -1.110965 -383.718299 0 -0.008727 -0.999962 0 0.999962 -0.008727 1 0 0 228-2500-060.dat
0 STEP
1 15 -47.576879 -80.971931 -368 0 0.008727 -0.999962 0 -0.999962 -0.008727 -1 0 0 228-2500-137.dat
0 STEP
1 15 64.418856 -79.994507 -368 0 0.008727 -0.999962 0 -0.999962 -0.008727 -1 0 0 228-2500-023.dat
0 STEP
1 15 176.414591 -79.017084 -368 0 0.008727 0.999962 0 -0.999962 0.008727 1 0 0 228-2500-137.dat
1 15 0.421293 -80.553035 -352.000609 -0.999962 0.008727 0.000038 -0.008727 -0.999962 0 0.000038 0 1 228-2500-134-v2.dat
1 15 128.416418 -79.435979 -352.000609 -0.999962 0.008727 0.000038 -0.008727 -0.999962 0 0.000038 0 1 228-2500-134-v2.dat
0 STEP
1 15 488.416418 184.564021 -176.000609 0.000038 0 1 -0.008727 -0.999962 0 0.999962 -0.008727 -0.000038 228-2500-1061.dat
