0 FILE main.ldr
0 Name: FLOP
0 Author: MOCHI KING
1 7 0 0 0 0 0 1 1 0 0 0 1 0 228-2500-030.dat
0 STEP
1 73 288 0 -16 1 0 0 0 1 0 0 0 1 228-2500-215.dat
1 73 272 -16 -16 1 0 0 0 1 0 0 0 1 228-2500-062.dat
1 73 304 16 -16 1 0 0 0 1 0 0 0 1 228-2500-062.dat
1 73 272 16 -16 1 0 0 0 1 0 0 0 1 228-2500-062.dat
1 73 304 -16 -16 1 0 0 0 1 0 0 0 1 228-2500-062.dat
1 73 224 0 -16 1 0 0 0 1 0 0 0 1 228-2500-062.dat
1 73 320 55.42592 -16 1 0 0 0 1 0 0 0 1 228-2500-060.dat
0 STEP
1 73 288 0 -32 1 0 0 0 1 0 0 0 1 228-2500-215.dat
0 STEP
1 0 -288 0 -32 1 0 0 0 1 0 0 0 1 228-2500-065a.dat
0 STEP
1 0 -160 0 -32 1 0 0 0 1 0 0 0 1 228-2500-065a.dat
1 0 -32 0 -32 1 0 0 0 1 0 0 0 1 228-2500-065a.dat
1 0 128 0 -32 0.819152 0.573576 0 -0.573576 0.819152 0 0 0 1 228-2500-065a.dat
0 STEP
1 7 0 0 -48 0 0 1 1 0 0 0 1 0 228-2500-030.dat
0 STEP
1 7 -16 -16 -48 0 1 0 1 0 0 0 0 -1 228-2500-060.dat
1 7 -16 -16 -64 -1 0 0 0 1 0 0 0 -1 228-2500-170.dat
0 STEP
1 7 -272 -16 -48 1 0 0 0 1 0 0 0 1 228-2500-060.dat
1 7 -304 16 -48 1 0 0 0 1 0 0 0 1 228-2500-060.dat
0 STEP
1 7 -288 32 -64 1 0 0 0 1 0 0 0 1 228-2500-134-v2.dat
0 STEP
1 7 -288 0 -128 -1 0 0 0 1 0 0 0 -1 228-2500-220-v2.dat
0 STEP
1 7 -16 16 32 1 0 0 0 1 0 0 0 1 228-2500-170.dat
1 7 -16 16 16 0 -1 0 1 0 0 0 0 1 228-2500-060.dat
0 STEP
1 7 -272 -16 16 1 0 0 0 1 0 0 0 1 228-2500-060.dat
1 7 -304 16 16 1 0 0 0 1 0 0 0 1 228-2500-060.dat
1 7 -288 32 32 -1 0 0 0 1 0 0 0 -1 228-2500-134-v2.dat
0 STEP
1 7 -288 48 -16 -1 0 0 0 -1 0 0 0 1 228-2500-025.dat
1 7 -304 -16 -64 -1 0 0 0 1 0 0 0 -1 228-2500-067a.dat
1 7 -272 16 -64 -1 0 0 0 1 0 0 0 -1 228-2500-067a.dat
1 7 -272 16 96 -1 0 0 0 1 0 0 0 -1 228-2500-067a.dat
1 7 -288 0 96 1 0 0 0 1 0 0 0 1 228-2500-220-v2.dat
0 STEP
1 7 -288 -32 -16 -1 0 0 0 -1 0 0 0 1 228-2500-025.dat
0 STEP
1 7 -272 -16 112 -1 0 0 0 -1 0 0 0 1 228-2500-060.dat
1 7 -304 16 112 -1 0 0 0 -1 0 0 0 1 228-2500-060.dat
0 STEP
1 7 -16 16 112 -1 0 0 0 1 0 0 0 -1 228-2500-067a.dat
1 7 -16 -16 80 -1 0 0 0 1 0 0 0 -1 228-2500-067a.dat
1 7 -16 -16 -80 -1 0 0 0 1 0 0 0 -1 228-2500-067a.dat
1 7 -16 16 -48 -1 0 0 0 1 0 0 0 -1 228-2500-067a.dat
1 7 -16 16 -144 0 -1 0 1 0 0 0 0 1 228-2500-060.dat
1 7 -16 16 -128 1 0 0 0 1 0 0 0 1 228-2500-170.dat
1 7 -16 -16 96 -1 0 0 0 1 0 0 0 -1 228-2500-170.dat
1 7 -16 -16 112 0 1 0 1 0 0 0 0 -1 228-2500-060.dat
1 7 -320 0 128 0 0 -1 1 0 0 0 -1 0 228-2500-030.dat
0 STEP
1 7 -560 -16 128 -1 0 0 0 1 0 0 0 -1 228-2500-060.dat
1 7 -592 16 128 -1 0 0 0 1 0 0 0 -1 228-2500-060.dat
1 7 -624 -16 128 -1 0 0 0 1 0 0 0 -1 228-2500-060.dat
0 STEP
1 7 -592 32 144 -1 0 0 0 0 -1 0 -1 0 228-2500-036.dat
0 STEP
1 7 -608 176 144 1 0 0 0 0 1 0 -1 0 228-2500-128-v2.dat
1 7 -592 48 144 0 1 0 -1 0 0 0 0 1 228-2500-061.dat
1 7 -624 48 144 0 1 0 -1 0 0 0 0 1 228-2500-061.dat
1 7 -592 144 144 0 1 0 -1 0 0 0 0 1 228-2500-060.dat
1 7 -624 144 144 0 1 0 -1 0 0 0 0 1 228-2500-060.dat
1 7 -608 64 144 -1 0 0 0 0 1 0 1 0 228-2560.dat
1 7 -624 80 128 0 1 0 -1 0 0 0 0 1 228-2500-060.dat
1 7 -592 80 128 0 1 0 -1 0 0 0 0 1 228-2500-060.dat
1 7 -560 64 128 0 0 1 -1 0 0 0 -1 0 228-2500-020.dat
1 72 -624 112 128 0 -1 0 -1 0 0 0 0 -1 228-2500-060.dat
1 72 -608 160 128 0 -1 0 -1 0 0 0 0 -1 228-2500-060.dat
1 72 -560 112 128 0 -1 0 -1 0 0 0 0 -1 228-2500-060.dat
1 72 -544 144 112 0 0 -1 -1 0 0 0 1 0 228-2500-034.dat
0 STEP
1 7 -496 16 112 1 0 0 0 1 0 0 0 1 228-2500-060.dat
1 7 -464 16 112 1 0 0 0 1 0 0 0 1 228-2500-060.dat
1 7 -464 -16 112 1 0 0 0 1 0 0 0 1 228-2500-060.dat
1 7 -496 -16 112 1 0 0 0 1 0 0 0 1 228-2500-060.dat
1 7 -496 48 112 1 0 0 0 1 0 0 0 1 228-2500-060.dat
1 7 -480 -24 -16 1 0 0 0 1 0 0 0 1 sumething-1.ldr
1 7 -528 -16 -144 1 0 0 0 1 0 0 0 1 228-2500-1061.dat
1 7 -560 -48 128 1 0 0 0 1 0 0 0 1 228-2500-109.dat
1 7 -592 -112 128 1 0 0 0 1 0 0 0 1 228-2500-109.dat
1 7 -560 -48 -144 1 0 0 0 1 0 0 0 1 228-2500-1061.dat
1 7 -592 -112 -144 1 0 0 0 1 0 0 0 1 228-2500-1061.dat
1 7 -592 -112 -160 -1 0 0 0 1 0 0 0 -1 228-2500-109.dat
1 7 -560 -48 -160 -1 0 0 0 1 0 0 0 -1 228-2500-109.dat
0 STEP
0 STEP
1 7 -272 -16 -144 0 -1 0 -1 0 0 0 0 -1 228-2500-060.dat
1 7 -304 16 -144 0 -1 0 -1 0 0 0 0 -1 228-2500-060.dat
1 7 -464 -16 -144 0 -1 0 -1 0 0 0 0 -1 228-2500-060.dat
1 7 -496 -16 -144 0 -1 0 -1 0 0 0 0 -1 228-2500-060.dat
1 7 -464 16 -144 0 -1 0 -1 0 0 0 0 -1 228-2500-060.dat
1 7 -496 16 -144 0 -1 0 -1 0 0 0 0 -1 228-2500-060.dat
1 7 -320 0 -160 0 0 -1 -1 0 0 0 1 0 228-2500-030.dat
0 STEP
1 7 -592 32 -176 -1 0 0 0 0 1 0 1 0 228-2500-036.dat
0 STEP
1 72 -544 144 -160 0 0 -1 -1 0 0 0 1 0 228-2500-034.dat
1 72 -608 160 -160 0 -1 0 -1 0 0 0 0 -1 228-2500-060.dat
1 72 -624 112 -160 0 -1 0 -1 0 0 0 0 -1 228-2500-060.dat
1 72 -560 112 -160 0 -1 0 -1 0 0 0 0 -1 228-2500-060.dat
1 7 -608 64 -16 0 -1 0 -1 0 0 0 0 -1 axle-and-sproket-2.ldr
0 STEP
1 7 -624 80 -160 0 1 0 -1 0 0 0 0 1 228-2500-060.dat
1 7 -624 48 -160 0 1 0 -1 0 0 0 0 1 228-2500-060.dat
1 7 -560 80 -160 0 1 0 -1 0 0 0 0 1 228-2500-060.dat
1 7 -560 64 -144 0 0 1 -1 0 0 0 -1 0 228-2500-020.dat
0 STEP
1 7 -608 176 -176 -1 0 0 0 0 1 0 1 0 228-2500-128-v2.dat
1 7 288 0 -52 1 0 0 0 1 0 0 0 1 228-2500-083.dat
1 7 352 184 -54 1 0 0 0 1 0 0 0 1 Thingy.ldr
0 STEP
1 7 288 0 -49 1 0 0 0 1 0 0 0 1 228-2500-112.dat
1 7 288 0 -57 1 0 0 0 1 0 0 0 1 228-2500-114.dat
1 7 288 0 -65 1 0 0 0 1 0 0 0 1 228-2500-114.dat
0 STEP
1 7 272 176 -54 1 0 0 0 1 0 0 0 1 228-2500-060.dat
1 7 304 208 -54 1 0 0 0 1 0 0 0 1 228-2500-060.dat
1 7 272 208 -54 1 0 0 0 1 0 0 0 1 228-2500-060.dat
1 7 304 176 -54 1 0 0 0 1 0 0 0 1 228-2500-060.dat
0 STEP
1 7 288 112 -70 1 0 0 0 0 -1 0 1 0 228-2500-024.dat
1 7 272 -16 -70 1 0 0 0 -1 0 0 0 -1 228-2500-064a.dat
1 7 304 -16 -70 1 0 0 0 -1 0 0 0 -1 228-2500-064a.dat
1 7 272 240 -70 1 0 0 0 -1 0 0 0 -1 228-2500-064a.dat
1 7 304 240 -70 1 0 0 0 -1 0 0 0 -1 228-2500-064a.dat
1 7 288 0 -68 1 0 0 0 -1 0 0 0 -1 228-2500-168.dat
1 7 288 192 -70 1 0 0 0 -1 0 0 0 -1 228-2500-112.dat
1 7 288 192 -70 1 0 0 0 -1 0 0 0 -1 228-2500-227.dat
0 STEP
1 7 288 96 -68 1 0 0 0 -1 0 0 0 -1 228-2500-112.dat
1 7 288 96 -68 1 0 0 0 -1 0 0 0 -1 228-2500-228.dat
1 7 288 96 -84 1 0 0 0 -1 0 0 0 -1 228-2500-112.dat
1 7 288 192 -85 1 0 0 0 -1 0 0 0 -1 228-2500-112.dat
1 7 288 112 -86 1 0 0 0 0 1 0 -1 0 228-2500-024.dat
0 STEP
1 7 320 192 -22 0 1 0 -1 0 0 0 0 1 228-2500-026.dat
1 7 336 176 -198 0 0 1 -1 0 0 0 -1 0 228-2500-060.dat
1 7 336 176 -166 0 0 1 -1 0 0 0 -1 0 228-2500-060.dat
1 7 336 208 -166 0 0 1 -1 0 0 0 -1 0 228-2500-060.dat
1 7 336 208 -198 0 0 1 -1 0 0 0 -1 0 228-2500-060.dat
1 7 336 176 154 0 0 1 -1 0 0 0 -1 0 228-2500-060.dat
1 7 336 176 122 0 0 1 -1 0 0 0 -1 0 228-2500-060.dat
1 7 336 208 122 0 0 1 -1 0 0 0 -1 0 228-2500-060.dat
1 7 336 208 154 0 0 1 -1 0 0 0 -1 0 228-2500-060.dat
0 STEP
1 7 352 192 -214 0 0 -1 1 0 0 0 -1 0 228-2500-134-v2.dat
1 7 352 192 170 0 0 -1 -1 0 0 0 1 0 228-2500-134-v2.dat
0 STEP
1 7 240 208 -166 0 0 -1 -1 0 0 0 1 0 228-2500-060.dat
1 7 240 208 -198 0 0 -1 -1 0 0 0 1 0 228-2500-060.dat
1 7 240 176 -198 0 0 -1 -1 0 0 0 1 0 228-2500-060.dat
1 7 240 176 -166 0 0 -1 -1 0 0 0 1 0 228-2500-060.dat
1 7 224 192 -214 0 0 1 -1 0 0 0 -1 0 228-2500-134-v2.dat
1 7 240 176 122 0 0 -1 1 0 0 0 -1 0 228-2500-060.dat
1 7 240 176 154 0 0 -1 1 0 0 0 -1 0 228-2500-060.dat
1 7 240 208 154 0 0 -1 1 0 0 0 -1 0 228-2500-060.dat
1 7 240 208 122 0 0 -1 1 0 0 0 -1 0 228-2500-060.dat
1 7 224 192 170 0 0 1 1 0 0 0 1 0 228-2500-134-v2.dat
0 STEP
1 7 144 160 -6 1 0 0 0 0 1 0 -1 0 228-2500-086.dat
1 7 144 160 -38 1 0 0 0 0 1 0 -1 0 228-2500-086.dat
1 7 144 176 -6 0 0 -1 0 -1 0 -1 0 0 228-2500-005-v2.dat
1 7 144 176 -38 0 0 -1 0 -1 0 -1 0 0 228-2500-005-v2.dat
0 STEP
1 7 64 176 -22 0 0 -1 0 -1 0 -1 0 0 228-2500-135-v2.dat
0 STEP
1 7 96 160 -6 0 1 0 0 0 -1 -1 0 0 228-2500-060.dat
1 7 96 160 -38 0 1 0 0 0 -1 -1 0 0 228-2500-060.dat
1 7 80 144 -22 1 0 0 0 1 0 0 0 1 228-2500-030.dat
1 7 64 176 -70 1 0 0 0 -1 0 0 0 -1 228-2500-126-v2.dat
1 7 64 176 26 0 -1 0 1 0 0 0 0 1 228-2500-126-v2.dat
0 STEP
1 7 48 208 -38 0 0 1 1 0 0 0 1 0 228-2500-060.dat
1 7 48 208 -6 0 0 1 1 0 0 0 1 0 228-2500-060.dat
1 7 32 192 -22 0 1 0 1 0 0 0 0 -1 228-2500-026.dat
1 7 288 32 -118 0.939693 0.34202 0 -0.34202 0.939693 0 0 0 1 228-2500-064a.dat
1 7 32.403607 125.029479 -134 0.34202 0 0.939693 0.939693 0 -0.34202 0 1 0 228-2500-015.dat
0 STEP
1 7 32 192 -198 0 1 0 1 0 0 0 0 -1 228-2500-135-v2.dat
1 7 32 192 154 0 1 0 -1 0 0 0 0 1 228-2500-135-v2.dat
0 STEP
1 7 0 176 -214 0 1 0 -1 0 0 0 0 1 228-2500-060.dat
1 7 0 208 -214 0 1 0 -1 0 0 0 0 1 228-2500-060.dat
1 7 0 176 170 0 1 0 -1 0 0 0 0 1 228-2500-060.dat
1 7 0 208 170 0 1 0 -1 0 0 0 0 1 228-2500-060.dat
0 STEP
0 STEP
1 7 77.508853 108.612512 -134 0 1 0 1 0 0 0 0 -1 228-2500-060.dat
1 7 77.508853 140.612512 -134 -1 0 0 0 1 0 0 0 -1 228-2500-133-v2.dat
1 7 107.579017 97.667868 -118 0.34202 0.939693 0 0.939693 -0.34202 0 0 0 -1 228-2500-060.dat
1 7 137.649181 86.723223 -118 0.34202 0.939693 0 0.939693 -0.34202 0 0 0 -1 228-2500-060.dat
0 STEP
1 7 128.086421 107.230627 -22 -0.939693 0.34202 0 0.34202 0.939693 0 0 0 -1 another_sub_file.ldr
1 7 -193.122622 207.114313 -118 -0.939693 0.34202 0 0.34202 0.939693 0 0 0 -1 228-2500-060.dat
1 7 17.368525 130.501801 -118 -0.939693 0.34202 0 0.34202 0.939693 0 0 0 -1 228-2500-060.dat
0 STEP
1 7 -87.877048 168.808057 -22 0.939693 0.34202 0 -0.34202 0.939693 0 0 0 1 228-2540c01.dat
0 STEP
1 7 137.649181 86.723223 74 0.34202 0.939693 0 0.939693 -0.34202 0 0 0 -1 228-2500-060.dat
1 7 107.579017 97.667868 74 0.34202 0.939693 0 0.939693 -0.34202 0 0 0 -1 228-2500-060.dat
1 7 17.368525 130.501801 74 0.34202 0.939693 0 0.939693 -0.34202 0 0 0 -1 228-2500-060.dat
1 7 -193.122622 207.114313 74 0.34202 0.939693 0 0.939693 -0.34202 0 0 0 -1 228-2500-060.dat
1 7 32.403607 125.029479 74 0.34202 0 0.939693 0.939693 0 -0.34202 0 1 0 228-2500-015.dat
1 7 77.508853 140.612512 90 1 0 0 0 1 0 0 0 1 228-2500-133-v2.dat
1 7 77.508853 108.612512 90 0 -1 0 1 0 0 0 0 1 228-2500-060.dat
0 STEP
1 7 -223.192889 218.058919 154 -0.939693 0.34202 0 0.34202 0.939693 0 0 0 -1 228-2500-067a.dat
1 7 304 80 28 0 1 0 1 0 0 0 0 -1 228-2500-060.dat
1 7 272 80 28 0 1 0 1 0 0 0 0 -1 228-2500-060.dat
0 STEP
1 7 384 -24 -60 0 0 -1 -1 0 0 0 1 0 how many submodels are there.ldr
0 STEP
1 7 304 80 -102 -1 0 0 0 1 0 0 0 -1 228-2500-060.dat
1 7 272 80 -102 -1 0 0 0 1 0 0 0 -1 228-2500-060.dat
0 STEP
1 7 400 80 -238 0 0 1 0 1 0 -1 0 0 how many sub models are there 2.ldr
0 STEP
1 7 456 8 -36 0 0 -1 0 -1 0 -1 0 0 bumper.ldr
0 STEP
1 7 48 191.999985 169.999993 0 0 1 1.000001 0 0 0 1.000001 0 i think this is for the drivetrain1.ldr
0 STEP
1 7 96 160 250 0 1 0 0 0 -1 -1 0 0 228-2500-060.dat
1 7 64 160 250 0 1 0 0 0 -1 -1 0 0 228-2500-060.dat
1 7 80 176 282 1 0 0 0 0 -1 0 1 0 228-2500-135-v2.dat
0 STEP
1 7 112 192 282 0 0 1 0 1 0 -1 0 0 i think this is for the drivetrain1.1.ldr
0 STEP
1 7 -272 176 -24 0 -1 0 1 0 0 0 0 1 front part.ldr
0 STEP
1 7 96 200 -240 0 0 1 -1 0 0 0 -1 0 i think this is for the drivetrain2.ldr
0 STEP
1 7 96 160 -294 0 -1 0 0 0 1 -1 0 0 228-2500-060.dat
1 7 64 160 -294 0 -1 0 0 0 1 -1 0 0 228-2500-060.dat
1 7 80 176 -326 -1 0 0 0 0 -1 0 -1 0 228-2500-135-v2.dat
0 STEP
1 7 64 208 282 -1 0 0 0 1 0 0 0 -1 228-2500-060.dat
1 7 64 208 266 -1 0 0 0 1 0 0 0 -1 228-2500-170.dat
1 7 64 208 -312 -1 0 0 0 1 0 0 0 -1 228-2500-170.dat
1 7 64 208 -328 -1 0 0 0 1 0 0 0 -1 228-2500-060.dat
1 7 48 216 -344 -1 0 0 0 1 0 0 0 -1 i think this is for the drivetrain2.1.ldr
0 STEP
1 7 -96 208 -344 -1 0 0 0 1 0 0 0 -1 228-2500-060.dat
1 7 -96 176 -344 -1 0 0 0 1 0 0 0 -1 228-2500-060.dat
1 7 -160 192 -360 0 0 1 1 0 0 0 1 0 228-2500-020.dat
1 7 -96 175.999969 301.800133 -1 0 0 0 1 0 0 0 -1 228-2500-060.dat
1 7 -160 191.999969 301.800133 0 0 1 1 0 0 0 1 0 228-2500-020.dat
1 7 -96 207.999969 301.800133 -1 0 0 0 1 0 0 0 -1 228-2500-060.dat
0 FILE sumething-1.ldr
0 Author: MOCHI KING
1 7 0 -24 0 1 0 0 0 1 0 0 0 1 228-2500-023.dat
1 7 0 -8 -112 1 0 0 0 -1 0 0 0 -1 228-2500-137.dat
1 7 0 -8 112 -1 0 0 0 -1 0 0 0 1 228-2500-137.dat
1 7 16 -8 -64 0 0 1 0 -1 0 1 0 0 228-2500-134-v2.dat
1 7 16 -8 64 0 0 1 0 -1 0 1 0 0 228-2500-134-v2.dat
0 FILE axle-and-sproket-2.ldr
0 Author: MOCHI KING
1 7 0 0 0 1 0 0 0 1 0 0 0 1 228-2500-263.dat
1 7 0 0 -72 1 0 0 0 1 0 0 0 1 228-2500-168.dat
0 STEP
1 7 0 0 -24 0 0 1 -1 0 0 0 -1 0 228-2500-154.dat
1 7 0 0 -8 0 0 1 -1 0 0 0 -1 0 228-2500-154.dat
1 7 0 0 8 0 0 1 -1 0 0 0 -1 0 228-2500-154.dat
1 7 0 0 24 0 0 1 -1 0 0 0 -1 0 228-2500-154.dat
1 7 0 0 40 0 0 1 -1 0 0 0 -1 0 228-2500-154.dat
0 STEP
1 7 0 0 56 1 0 0 0 1 0 0 0 1 228-2500-168.dat
1 7 0 0 40 1 0 0 0 1 0 0 0 1 228-2500-232.dat
1 7 0 0 -56 1 0 0 0 1 0 0 0 1 228-2500-232.dat
1 7 0 0 120 1 0 0 0 1 0 0 0 1 228-2500-168.dat
1 7 0 0 -128 1 0 0 0 1 0 0 0 1 228-2500-168.dat
0 FILE Thingy.ldr
0 Author: MOCHI KING
1 7 -112 8 32 0 1 0 -1 0 0 0 0 1 228-2500-026.dat
1 7 -64 8 16 1 0 0 0 -1 0 0 0 -1 228-2500-1253.dat
1 7 -64 8 48 -1 0 0 0 -1 0 0 0 1 228-2500-1253.dat
1 7 -112 -24 32 0 0 -1 0 -1 0 -1 0 0 228-2500-022.dat
1 7 -64 -24 -14 1 0 0 0 1 0 0 0 1 motor thing.ldr
1 7 -64 -56 2 1 0 0 0 1 0 0 0 1 228-2500-067a.dat
1 7 -64 -88 66 1 0 0 0 1 0 0 0 1 228-2500-112.dat
1 7 -64 -88 58 1 0 0 0 1 0 0 0 1 228-2500-114.dat
1 7 -64 -88 50 1 0 0 0 1 0 0 0 1 228-2500-114.dat
1 7 -64 -88 34 1 0 0 0 1 0 0 0 1 228-2500-213.dat
1 7 -64 -88 18 1 0 0 0 1 0 0 0 1 228-2500-213.dat
1 7 -64 -152 82 -1 0 0 0 1 0 0 0 -1 228-2500-109.dat
1 7 -64 -152 130 -1 0 0 0 1 0 0 0 -1 228-2500-065a.dat
0 FILE motor thing.ldr
0 Author: MOCHI KING
1 7 0 32 96 1 0 0 0 0 -1 0 1 0 228-2560.dat
1 7 -16 16 96 -1 0 0 0 -1 0 0 0 1 228-2500-061.dat
1 7 16 16 96 -1 0 0 0 -1 0 0 0 1 228-2500-061.dat
1 7 16 48 96 -1 0 0 0 -1 0 0 0 1 228-2500-061.dat
1 7 -16 48 96 -1 0 0 0 -1 0 0 0 1 228-2500-061.dat
0 STEP
1 7 -16 -48 96 -1 0 0 0 -1 0 0 0 1 228-2500-060.dat
1 7 16 -48 96 -1 0 0 0 -1 0 0 0 1 228-2500-060.dat
1 7 0 32 32 -1 0 0 0 -1 0 0 0 1 228-2500-079.dat
1 7 0 -64 32 -1 0 0 0 -1 0 0 0 1 228-2500-082.dat
0 STEP
1 7 0 -64 80 -1 0 0 0 0 1 0 1 0 228-2500-023.dat
0 FILE another_sub_file.ldr
0 Author: MOCHI KING
1 7 0 0 0 1 0 0 0 1 0 0 0 1 228-2500-021.dat
1 7 0 -16 80 1 0 0 0 1 0 0 0 1 228-2500-271.dat
1 7 0 -16 -80 1 0 0 0 -1 0 0 0 -1 228-2500-271.dat
1 7 0 -48 0 1 0 0 0 1 0 0 0 1 228-2500-021.dat
0 FILE how many submodels are there.ldr
0 Author: MOCHI KING
1 7 -104 88 0 1 0 0 0 1 0 0 0 1 228-2500-007-v2.dat
1 7 -104 -40 -112 0 -1 0 0 0 1 -1 0 0 228-2500-070a.dat
1 7 -104 -40 -16 0 -1 0 0 0 1 -1 0 0 228-2500-070a.dat
1 7 -104 88 -80 0 -1 0 0 0 1 -1 0 0 228-2500-086.dat
1 7 -104 88 -48 0 -1 0 0 0 1 -1 0 0 228-2500-086.dat
1 7 -24 72 -64 0 1 0 0 0 1 1 0 0 228-2500-137.dat
1 7 -56 72 -64 0 -1 0 0 0 1 -1 0 0 228-2500-086.dat
0 FILE how many sub models are there 2.ldr
0 Author: MOCHI KING
1 7 -120 0 -16 0 -1 0 1 0 0 0 0 1 228-2500-007-v2.dat
1 7 -136 0 32 0 0 1 1 0 0 0 1 0 228-2500-086.dat
1 7 -136 0 64 0 0 1 1 0 0 0 1 0 228-2500-086.dat
1 7 -152 -80 48 0 0 1 0 -1 0 1 0 0 228-2500-137.dat
0 FILE bumper.ldr
0 Author: MOCHI KING
1 7 0 24 8 1 0 0 0 1 0 0 0 1 228-2677-1.dat
1 7 16 -46 8 0 0 1 0 1 0 -1 0 0 228-2500-372.dat
1 7 -16 -46 8 0 0 -1 0 1 0 1 0 0 228-2500-371.dat
0 FILE i think this is for the drivetrain1.ldr
0 Author: MOCHI KING
1 7 0 0 0 1 0 0 0 1 0 0 0 1 228-2500-030.dat
1 7 -16 0 112 1 0 0 0 0 -1 0 1 0 228-2500-060.dat
1 7 16 0 112 1 0 0 0 0 -1 0 1 0 228-2500-060.dat
1 7 16 0 48 1 0 0 0 0 -1 0 1 0 228-2500-060.dat
1 7 -16 0 16 1 0 0 0 0 -1 0 1 0 228-2500-060.dat
1 7 0 0 96 1 0 0 0 -1 0 0 0 -1 228-2560.dat
1 7 0 70 96 1 0 0 0 0 -1 0 1 0 228-2500-079.dat
1 7 0 64 272 1 0 0 0 1 0 0 0 1 228-2500-277.dat
1 7 16 80 16 1 0 0 0 0 -1 0 1 0 228-2500-067a.dat
1 7 0 64 -112 0 0 -1 0 -1 0 -1 0 0 228-2500-277.dat
1 7 0 16 96 0 -1 0 0 0 1 -1 0 0 228-2500-114.dat
1 7 0 24 96 0 -1 0 0 0 1 -1 0 0 228-2500-112.dat
1 7 0 24 96 0 -1 0 0 0 1 -1 0 0 228-2500-233.dat
1 7 0 40 96 0 -1 0 0 0 1 -1 0 0 228-2500-168.dat
1 7 0 64 192 0 -1 0 0 0 -1 1 0 0 228-2500-082.dat
1 7 0 24 192 0 -1 0 0 0 -1 1 0 0 228-2500-114.dat
1 7 0 24 224 0 -1 0 0 0 -1 1 0 0 228-2500-112.dat
1 7 0 40 192 0 -1 0 0 0 -1 1 0 0 228-2500-232.dat
1 7 16 -8 -272 0 0 -1 0 1 0 1 0 0 228-2500-031.dat
1 7 0 0 -288 -1 0 0 0 0 1 0 1 0 228-2500-060.dat
1 7 0 0 -256 -1 0 0 0 0 1 0 1 0 228-2500-060.dat
1 7 -16 0 -240 -1 0 0 0 0 1 0 1 0 228-2500-060.dat
1 7 -16 91.8 -272 0 1 0 0 0 1 1 0 0 228-2500-122.dat
1 7 -16 19.8 -272 0 1 0 0 0 1 1 0 0 228-2500-112.dat
1 7 -16 11.8 -272 0 1 0 0 0 1 1 0 0 228-2500-114.dat
1 7 -16 19.8 -272 0 1 0 0 0 1 1 0 0 228-2500-232.dat
1 7 48 0 -272 0 1 0 0 0 1 1 0 0 228-2500-060.dat
1 7 48 0 -304 -1 0 0 0 0 1 0 1 0 228-2500-060.dat
1 7 48 0 -336 -1 0 0 0 1 0 0 0 -1 228-2500-147.dat
1 7 0 48 224 0 1 0 0 0 -1 -1 0 0 228-2500-114.dat
1 7 0 96 192 0 1 0 0 0 -1 -1 0 0 228-2500-208c02.dat
1 7 0 72 224 0 1 0 0 0 -1 -1 0 0 228-2500-168.dat
1 7 0 88 192 0 1 0 0 0 -1 -1 0 0 228-2500-168.dat
1 7 -16 43.8 -272 0 1 0 0 0 -1 -1 0 0 228-2500-114.dat
1 7 -16 51.8 -272 0 1 0 0 0 -1 -1 0 0 228-2500-114.dat
1 7 -16 83.8 -272 0 1 0 0 0 -1 -1 0 0 228-2536.dat
1 7 -16 83.8 -272 0 1 0 0 0 -1 -1 0 0 228-2500-168.dat
1 7 -16 91.8 -272 0 1 0 0 0 -1 -1 0 0 228-2500-114.dat
1 7 -16 107.8 -272 0 1 0 0 0 -1 -1 0 0 228-2500-168.dat
0 FILE i think this is for the drivetrain1.1.ldr
0 Author: MOCHI KING
1 7 0 0 0 0 -1 0 1 0 0 0 0 1 228-2500-027.dat
1 7 0 -16 144 0 0 1 1 0 0 0 1 0 228-2500-060.dat
1 7 0 16 144 0 0 1 1 0 0 0 1 0 228-2500-060.dat
1 7 0 16 112 0 0 1 1 0 0 0 1 0 228-2500-060.dat
1 7 0 -16 112 0 0 1 1 0 0 0 1 0 228-2500-060.dat
1 7 0 0 128 0 1 0 1 0 0 0 0 -1 228-2500-017.dat
0 FILE front part.ldr
0 Author: MOCHI KING
1 7 0 0 0 1 0 0 0 1 0 0 0 1 228-2500-009-v2.dat
1 7 0 0 -96 0 0 -1 0 1 0 1 0 0 228-2500-128-v2.dat
1 7 0 0 96 0 0 -1 0 1 0 1 0 0 228-2500-128-v2.dat
1 7 0 -16 -144 0 -1 0 -1 0 0 0 0 -1 228-2500-126-v2.dat
1 7 0 -16 144 1 0 0 0 1 0 0 0 1 228-2500-126-v2.dat
1 7 0 -48 -176 1 0 0 0 1 0 0 0 1 228-2500-064a.dat
1 7 0 -16 -176 1 0 0 0 1 0 0 0 1 228-2500-064a.dat
1 7 32 -16 -176 1 0 0 0 1 0 0 0 1 228-2500-064a.dat
1 7 0 -16 160 1 0 0 0 1 0 0 0 1 228-2500-064a.dat
1 7 0 -48 160 1 0 0 0 1 0 0 0 1 228-2500-064a.dat
1 7 32 -16 160 1 0 0 0 1 0 0 0 1 228-2500-064a.dat
1 7 0 16 -32 0 0 -1 0 -1 0 -1 0 0 228-2500-135-v2.dat
1 7 0 16 32 0 0 -1 0 -1 0 -1 0 0 228-2500-135-v2.dat
1 7 -16 -16 112 0 0 -1 0 -1 0 -1 0 0 228-2500-060.dat
1 7 -16 -16 80 0 0 -1 0 -1 0 -1 0 0 228-2500-060.dat
1 7 -16 48 48 0 0 -1 0 -1 0 -1 0 0 228-2500-060.dat
1 7 -16 48 16 0 0 -1 0 -1 0 -1 0 0 228-2500-060.dat
1 7 -16 48 -16 0 0 -1 0 -1 0 -1 0 0 228-2500-060.dat
1 7 -16 48 -48 0 0 -1 0 -1 0 -1 0 0 228-2500-060.dat
1 7 -16 -16 -80 0 0 -1 0 -1 0 -1 0 0 228-2500-060.dat
1 7 -16 -16 -112 0 0 -1 0 -1 0 -1 0 0 228-2500-060.dat
1 7 -16 0 0 0 -1 0 1 0 0 0 0 1 228-2500-1600.dat
1 7 -32 0 128 0 0 1 1 0 0 0 1 0 228-2500-109.dat
1 7 -32 0 -128 0 0 1 1 0 0 0 1 0 228-2500-109.dat
1 7 -56 0 128 0 0 1 1 0 0 0 1 0 228-2500-063.dat
1 7 -56 0 -128 0 0 1 1 0 0 0 1 0 228-2500-063.dat
1 7 -88 0 128 0 0 -1 1 0 0 0 -1 0 228-2500-172-v2.dat
1 7 -88 0 120 0 -1 0 1 0 0 0 0 1 228-2500-109.dat
1 7 -88 0 -88 0 -1 0 1 0 0 0 0 1 228-2500-072a.dat
1 7 -88 0 -104 0 1 0 1 0 0 0 0 -1 228-2500-109.dat
1 7 -88 0 -128 0 0 -1 1 0 0 0 -1 0 228-2500-172-v2.dat
1 7 -88 0 -120 0 1 0 1 0 0 0 0 -1 228-2500-109.dat
0 FILE i think this is for the drivetrain2.ldr
0 Author: MOCHI KING
1 7 8 -24 -48 1 0 0 0 1 0 0 0 1 228-2500-030.dat
1 7 24 -24 64 1 0 0 0 0 1 0 -1 0 228-2500-060.dat
1 7 -8 -24 0 1 0 0 0 0 1 0 -1 0 228-2500-060.dat
1 7 -8 -24 64 1 0 0 0 0 1 0 -1 0 228-2500-060.dat
1 7 24 -24 -32 1 0 0 0 0 1 0 -1 0 228-2500-060.dat
1 7 8 -24 48 1 0 0 0 -1 0 0 0 -1 228-2560.dat
1 7 8 38 48 1 0 0 0 0 -1 0 1 0 228-2500-079.dat
1 7 -8 -8 -32 0 -1 0 0 0 1 -1 0 0 228-2500-067a.dat
1 7 8 40 -160 0 0 1 0 1 0 -1 0 0 228-2500-277.dat
1 7 8 40 224 1 0 0 0 1 0 0 0 1 228-2500-277.dat
1 7 8 -8 48 1 0 0 0 0 1 0 -1 0 228-2500-114.dat
1 7 8 0 48 1 0 0 0 0 1 0 -1 0 228-2500-112.dat
1 7 8 0 48 1 0 0 0 0 1 0 -1 0 228-2500-233.dat
1 7 8 16 48 1 0 0 0 0 1 0 -1 0 228-2500-168.dat
1 7 8 40 144 -1 0 0 0 0 -1 0 -1 0 228-2500-082.dat
1 7 8 0 144 -1 0 0 0 0 -1 0 -1 0 228-2500-114.dat
1 7 8 0 144 -1 0 0 0 0 -1 0 -1 0 228-2500-112.dat
1 7 8 16 144 -1 0 0 0 0 -1 0 -1 0 228-2500-232.dat
1 7 8 -24 -336 -1 0 0 0 0 -1 0 -1 0 228-2500-060.dat
1 7 -8 -24 -288 -1 0 0 0 0 -1 0 -1 0 228-2500-060.dat
1 7 24 -24 -288 -1 0 0 0 0 -1 0 -1 0 228-2500-060.dat
1 7 -8 -32 -320 -1 0 0 0 -1 0 0 0 1 228-2500-031.dat
1 7 32 48 -320 1 0 0 0 0 1 0 -1 0 228-2500-122.dat
1 7 8 -8 -304 1 0 0 0 0 1 0 -1 0 228-2500-114.dat
1 7 8 0 -304 1 0 0 0 0 1 0 -1 0 228-2500-112.dat
1 7 32 -16 -320 1 0 0 0 0 1 0 -1 0 228-2500-232.dat
1 7 -40 -24 -320 1 0 0 0 0 1 0 -1 0 228-2500-060.dat
1 7 -40 -24 -352 1 0 0 0 0 1 0 -1 0 228-2500-060.dat
1 7 -40 -8 -384 1 0 0 0 -1 0 0 0 -1 228-2500-147.dat
1 7 8 24 144 1 0 0 0 0 -1 0 1 0 228-2500-114.dat
1 7 8 72 144 1 0 0 0 0 -1 0 1 0 228-2500-208c02.dat
1 7 8 48 144 1 0 0 0 0 -1 0 1 0 228-2500-168.dat
1 7 8 64 144 1 0 0 0 0 -1 0 1 0 228-2500-168.dat
1 7 32 8 -320 1 0 0 0 0 -1 0 1 0 228-2500-114.dat
1 7 32 16 -320 1 0 0 0 0 -1 0 1 0 228-2500-114.dat
1 7 32 48 -320 1 0 0 0 0 -1 0 1 0 228-2536.dat
1 7 32 48 -320 1 0 0 0 0 -1 0 1 0 228-2500-168.dat
1 7 32 64 -320 1 0 0 0 0 -1 0 1 0 228-2500-168.dat
0 FILE i think this is for the drivetrain2.1.ldr
0 Author: MOCHI KING
1 7 -64 -24 -16 0 0 1 1 0 0 0 1 0 228-2500-027.dat
1 7 -176 -8 -16 0 1 0 1 0 0 0 0 -1 228-2500-060.dat
1 7 -208 -8 -16 0 1 0 1 0 0 0 0 -1 228-2500-060.dat
1 7 -208 -40 -16 0 1 0 1 0 0 0 0 -1 228-2500-060.dat
1 7 -176 -40 -16 0 1 0 1 0 0 0 0 -1 228-2500-060.dat
1 7 -192 -24 -16 0 0 -1 1 0 0 0 -1 0 228-2500-017.dat
