0 Name: Plow
0 Author: MOCHI KING
1 71 -32 32 16 0 -1 0 1 0 0 0 0 1 228-2500-025.dat
1 15 -16 16 -64 0 -1 0 1 0 0 0 0 1 228-2500-126-v2.dat
1 15 -16 16 96 1 0 0 0 -1 0 0 0 -1 228-2500-126-v2.dat
1 272 47.998782 -16 96.279249 0.008727 0 0.999962 0 1 0 -0.999962 0 0.008727 228-2500-148.dat
1 272 47.998782 0 -64.279249 0.008727 0 0.999962 0 -1 0 0.999962 0 -0.008727 228-2500-148.dat
1 73 47.998782 -16 -64.279249 0.707107 0.707107 0 0 0 -1 -0.707107 0.707107 0 228-2500-060.dat
1 73 93.645978 -16 -19.420883 0 1 0 0 0 -1 -1 0 0 228-2500-060.dat
1 73 93.645978 -16 51.420883 0 1 0 0 0 -1 -1 0 0 228-2500-060.dat
1 71 59.31249 -32 -52.965541 0.707107 0 0.707107 0 1 0 -0.707107 0 0.707107 228-2500-005-v2.dat
1 73 48.391144 -16 96.675717 -0.707107 0.707107 0 0 0 -1 -0.707107 -0.707107 0 228-2500-060.dat
1 71 59.704852 -32 85.362008 -0.707107 0 0.707107 0 1 0 -0.707107 0 -0.707107 228-2500-005-v2.dat
