0 Name: helloooootesttt
0 Author: tikitiki
1 7 40 48 0 0 0 -1 0 1 0 1 0 0 228-2500-030.dat
1 7 88 16 0 -1 0 0 0 0 1 0 1 0 228-2500-030.dat
1 7 88 56 -64 -1 0 0 0 0 1 0 1 0 228-2560c01.dat
1 7 88 88 64 1 0 0 0 0 -1 0 1 0 228-2500-131-v2.dat
1 7 -144 80 0 1 0 0 0 1 0 0 0 1 228-2500-131-v2.dat
1 7 72 32 -40 0 0 1 0 1 0 -1 0 0 228-2500-080.dat
1 7 72 -120 16 -1 0 0 0 1 0 0 0 -1 228-2500-035.dat
1 7 72 -128 0 -1 0 0 0 1 0 0 0 -1 228-2500-031.dat
1 7 72 -152 -8 -1 0 0 0 1 0 0 0 -1 228-2500-031.dat
1 7 72 -176 8 -1 0 0 0 1 0 0 0 -1 228-2500-031.dat
1 7 72 -192 -8 -1 0 0 0 1 0 0 0 -1 228-2500-031.dat
1 7 72 -208 0 -1 0 0 0 1 0 0 0 -1 228-2500-031.dat
1 7 72 -232 -8 -1 0 0 0 1 0 0 0 -1 228-2500-1357.dat
1 7 72 -248 16 0 0 -1 0 1 0 1 0 0 228-2500-1600.dat
1 7 72 -232 56 0 0 -1 0 1 0 1 0 0 228-2500-1600.dat
1 7 72 -264 16 1 0 0 0 1 0 0 0 1 228-2500-1357.dat
1 7 72 -280 8 1 0 0 0 1 0 0 0 1 228-5371-013.dat
1 7 72 -296 -16 0 0 1 0 1 0 -1 0 0 228-5371-013.dat
1 7 80 -304 -16 0 0 1 0 1 0 -1 0 0 228-2500-1357.dat
1 73 72 64 32 1 0 0 0 1 0 0 0 1 228-2500-089.dat
1 16 80 -16 0 1 0 0 0 1 0 0 0 1 228-2500-230.dat
1 16 80 -48 0 1 0 0 0 1 0 0 0 1 228-2500-230c01.dat
1 16 64 -40 32 1 0 0 0 1 0 0 0 1 228-2500-1472.dat
1 7 80 120 48 1 0 0 0 1 0 0 0 1 228-2500-143-v2.dat
1 7 80 224 8 1 0 0 0 1 0 0 0 1 228-2500-143-v2.dat
1 7 256 72 8 1 0 0 0 1 0 0 0 1 228-2500-349.dat
1 7 256 80 -40 1 0 0 0 1 0 0 0 1 228-2500-461.dat
1 7 256 88 -16 1 0 0 0 1 0 0 0 1 228-2500-461.dat
1 7 328 80 -16 1 0 0 0 1 0 0 0 1 228-2500-462.dat
1 7 384 80 -16 1 0 0 0 1 0 0 0 1 228-2500-461.dat
1 7 152 80 -16 1 0 0 0 1 0 0 0 1 228-2500-451.dat
1 7 128 -64 -16 1 0 0 0 1 0 0 0 1 228-2500-246.dat
1 7 72 -168 88 -1 0 0 0 -1 0 0 0 1 228-2500-246.dat
1 7 128 144 -16 -1 0 0 0 -1 0 0 0 1 228-2500-160.dat
1 7 280 64 -16 -1 0 0 0 -1 0 0 0 1 228-2500-130-v2.dat
1 7 40 128 -392 0 0 -1 0 1 0 1 0 0 228-2500-128-v2.dat
1 7 40 216 -384 0 0 -1 0 1 0 1 0 0 228-2500-128-v2.dat
1 7 40 192 -560 0 0 -1 0 1 0 1 0 0 228-2500-128-v2.dat
1 7 40 144 -400 0 0 -1 0 1 0 1 0 0 228-2500-128-v2.dat
1 7 40 208 -472 0 0 -1 0 1 0 1 0 0 228-2500-128-v2.dat
1 7 40 168 -472 0 0 -1 0 1 0 1 0 0 228-2500-128-v2.dat
1 7 40 168 -400 0 0 -1 0 1 0 1 0 0 228-2500-128-v2.dat
1 7 40 144 -504 0 0 -1 0 1 0 1 0 0 228-2500-128-v2.dat
1 7 40 136 -440 0 0 -1 0 1 0 1 0 0 228-2500-128-v2.dat
1 7 40 160 -544 0 0 -1 0 1 0 1 0 0 228-2500-128-v2.dat
1 7 40 112 -544 0 0 -1 0 1 0 1 0 0 228-2500-128-v2.dat
1 7 40 80 -472 0 0 -1 0 1 0 1 0 0 228-2500-128-v2.dat
1 7 40 64 -400 0 0 -1 0 1 0 1 0 0 228-2500-128-v2.dat
1 7 40 56 -336 0 0 -1 0 1 0 1 0 0 228-2500-128-v2.dat
1 7 40 64 -288 0 0 -1 0 1 0 1 0 0 228-2500-128-v2.dat
1 7 40 88 -264 0 0 -1 0 1 0 1 0 0 228-2500-128-v2.dat
1 7 40 104 -240 0 0 -1 0 1 0 1 0 0 228-2500-128-v2.dat
1 7 40 136 -232 0 0 -1 0 1 0 1 0 0 228-2500-128-v2.dat
1 7 40 152 -224 0 0 -1 0 1 0 1 0 0 228-2500-128-v2.dat
1 7 40 176 -232 0 0 -1 0 1 0 1 0 0 228-2500-128-v2.dat
1 7 40 200 -216 0 0 -1 0 1 0 1 0 0 228-2500-128-v2.dat
1 7 40 224 -208 0 0 -1 0 1 0 1 0 0 228-2500-128-v2.dat
1 7 40 248 -232 0 0 -1 0 1 0 1 0 0 228-2500-128-v2.dat
1 7 40 264 -264 0 0 -1 0 1 0 1 0 0 228-2500-128-v2.dat
1 7 40 272 -288 0 0 -1 0 1 0 1 0 0 228-2500-128-v2.dat
1 7 40 280 -328 0 0 -1 0 1 0 1 0 0 228-2500-128-v2.dat
1 7 40 288 -376 0 0 -1 0 1 0 1 0 0 228-2500-128-v2.dat
1 7 40 296 -424 0 0 -1 0 1 0 1 0 0 228-2500-128-v2.dat
1 7 40 272 -528 0 0 -1 0 1 0 1 0 0 228-2500-128-v2.dat
1 7 40 232 -544 0 0 -1 0 1 0 1 0 0 228-2500-128-v2.dat
1 7 40 216 -376 0 0 -1 0 1 0 1 0 0 228-2500-128-v2.dat
1 7 40 224 -392 0 0 -1 0 1 0 1 0 0 228-2500-128-v2.dat
1 7 40 184 -344 0 0 -1 0 1 0 1 0 0 228-2500-128-v2.dat
1 7 40 128 -216 0 0 -1 0 1 0 1 0 0 228-2500-128-v2.dat
1 7 40 152 -336 0 0 -1 0 1 0 1 0 0 228-2500-128-v2.dat
1 7 40 144 -304 0 0 -1 0 1 0 1 0 0 228-2500-128-v2.dat
1 7 40 104 -320 0 0 -1 0 1 0 1 0 0 228-2500-128-v2.dat
1 7 40 104 -376 0 0 -1 0 1 0 1 0 0 228-2500-128-v2.dat
1 7 40 112 -464 0 0 -1 0 1 0 1 0 0 228-2500-128-v2.dat
1 7 40 80 -336 0 0 -1 0 1 0 1 0 0 228-2500-128-v2.dat
1 7 40 208 -472 0 0 -1 0 1 0 1 0 0 228-2500-128-v2.dat
1 7 40 232 -440 0 0 -1 0 1 0 1 0 0 228-2500-128-v2.dat
1 7 40 232 -408 0 0 -1 0 1 0 1 0 0 228-2500-128-v2.dat
1 7 40 224 -584 0 0 -1 0 1 0 1 0 0 228-2500-128-v2.dat
1 7 40 216 -352 0 0 -1 0 1 0 1 0 0 228-2500-128-v2.dat
1 7 40 224 -312 0 0 -1 0 1 0 1 0 0 228-2500-128-v2.dat
1 7 40 200 -256 0 0 -1 0 1 0 1 0 0 228-2500-128-v2.dat
1 7 40 240 -384 0 0 -1 0 1 0 1 0 0 228-2500-128-v2.dat
1 7 40 248 -344 0 0 -1 0 1 0 1 0 0 228-2500-128-v2.dat
1 7 40 248 -416 0 0 -1 0 1 0 1 0 0 228-2500-128-v2.dat
1 7 40 192 -488 0 0 -1 0 1 0 1 0 0 228-2500-128-v2.dat
1 7 40 240 -472 0 0 -1 0 1 0 1 0 0 228-2500-128-v2.dat
1 7 40 216 -248 0 0 -1 0 1 0 1 0 0 228-2500-128-v2.dat
1 7 40 184 -408 0 0 -1 0 1 0 1 0 0 228-2500-128-v2.dat
1 7 40 112 -288 0 0 -1 0 1 0 1 0 0 228-2500-128-v2.dat
1 7 40 88 -400 0 0 -1 0 1 0 1 0 0 228-2500-128-v2.dat
1 7 40 264 -392 0 0 -1 0 1 0 1 0 0 228-2500-128-v2.dat
1 7 40 120 -528 0 0 -1 0 1 0 1 0 0 228-2500-128-v2.dat
1 7 40 176 -304 0 0 -1 0 1 0 1 0 0 228-2500-128-v2.dat
1 7 40 176 -448 0 0 -1 0 1 0 1 0 0 228-2500-129.dat
1 7 40 200 -528 0 0 -1 0 1 0 1 0 0 228-2500-129.dat
1 7 40 192 -408 0 0 -1 0 1 0 1 0 0 228-2500-129.dat
1 7 40 176 -304 0 0 -1 0 1 0 1 0 0 228-2500-129.dat
1 7 40 232 -280 0 0 -1 0 1 0 1 0 0 228-2500-129.dat
1 7 40 160 -536 0 0 -1 0 1 0 1 0 0 228-2500-129.dat
1 7 40 160 -296 0 0 -1 0 1 0 1 0 0 228-2500-129.dat
1 7 40 144 -248 0 0 -1 0 1 0 1 0 0 228-2500-129.dat
1 7 40 88 -336 0 0 -1 0 1 0 1 0 0 228-2500-129.dat
1 7 40 208 -432 0 0 -1 0 1 0 1 0 0 228-2500-129.dat
1 7 40 280 -440 0 0 -1 0 1 0 1 0 0 228-2500-129.dat
1 7 40 264 -496 0 0 -1 0 1 0 1 0 0 228-2500-129.dat
1 7 40 208 -512 0 0 -1 0 1 0 1 0 0 228-2500-129.dat
1 7 40 240 -272 0 0 -1 0 1 0 1 0 0 228-2500-129.dat
1 7 40 224 -296 0 0 -1 0 1 0 1 0 0 228-2500-129.dat
1 7 40 152 -288 0 0 -1 0 1 0 1 0 0 228-2500-129.dat
1 7 40 88 -400 0 0 -1 0 1 0 1 0 0 228-2500-129.dat
1 7 40 80 -440 0 0 -1 0 1 0 1 0 0 228-2500-129.dat
1 7 40 96 -504 0 0 -1 0 1 0 1 0 0 228-2500-129.dat
1 7 40 272 -464 0 0 -1 0 1 0 1 0 0 228-2500-128-v2.dat
