0 Name: basebot yayyyy
0 Author: MOCHI KING
1 73 0 0 0 1 0 0 0 1 0 0 0 1 228-2500-026.dat
1 73 -16 -32 -160 0 0 -1 1 0 0 0 -1 0 228-2500-1253.dat
1 73 0 -32 -48 0 1 0 -1 0 0 0 0 1 228-2500-1253.dat
0 STEP
1 73 16 -32 -160 0 0 1 -1 0 0 0 -1 0 228-2500-1253.dat
1 73 0 -32 176 0 1 0 -1 0 0 0 0 1 228-2500-1253.dat
0 STEP
1 73 32 -48 -176 0 0 1 -1 0 0 0 -1 0 228-2500-060.dat
1 73 32 -16 -144 0 0 1 -1 0 0 0 -1 0 228-2500-060.dat
1 73 48 -32 0 0 -1 0 -1 0 0 0 0 -1 228-2500-026.dat
0 STEP
1 73 64 -32 -160 0 -1 0 -1 0 0 0 0 -1 228-2500-017.dat
1 73 48 -48 -144 0 0 1 -1 0 0 0 -1 0 228-2500-086.dat
1 73 48 -16 -176 0 0 1 -1 0 0 0 -1 0 228-2500-086.dat
1 73 48 -48 80 0 0 1 -1 0 0 0 -1 0 228-2500-086.dat
1 73 48 -16 112 0 0 1 -1 0 0 0 -1 0 228-2500-086.dat
1 73 64 -32 96 0 -1 0 -1 0 0 0 0 -1 228-2500-017.dat
0 STEP
1 73 80 -32 96 0 0 -1 -1 0 0 0 1 0 228-2500-094.dat
1 73 48 -32 96 0 -1 0 -1 0 0 0 0 -1 228-2560.dat
1 73 32 -48 112 0 0 -1 -1 0 0 0 1 0 228-2500-060.dat
1 73 32 -16 80 0 0 -1 -1 0 0 0 1 0 228-2500-060.dat
1 73 32 -48 48 0 0 -1 -1 0 0 0 1 0 228-2500-060.dat
1 73 32 -16 48 0 0 -1 -1 0 0 0 1 0 228-2500-060.dat
0 STEP
1 73 98 -32 96 0 0 -1 -1 0 0 0 1 0 228-2500-208c02.dat
1 73 66 -16 112 0 0 -1 -1 0 0 0 1 0 228-2500-060.dat
1 73 66 -16 80 0 0 -1 -1 0 0 0 1 0 228-2500-060.dat
1 73 66 -48 112 0 0 -1 -1 0 0 0 1 0 228-2500-060.dat
1 73 66 -48 80 0 0 -1 -1 0 0 0 1 0 228-2500-060.dat
1 73 82 -32 96 0 -1 0 -1 0 0 0 0 -1 228-2500-1925.dat
1 73 66 -32 96 0 0 -1 1 0 0 0 -1 0 228-2500-112.dat
0 STEP
1 73 48 -32 -160 0 0 -1 1 0 0 0 -1 0 228-2500-083.dat
1 73 80 -32 -160 0 -1 0 -1 0 0 0 0 -1 228-2500-1925.dat
1 73 64 -48 -144 0 0 -1 -1 0 0 0 1 0 228-2500-060.dat
1 73 64 -48 -176 0 0 -1 -1 0 0 0 1 0 228-2500-060.dat
1 73 64 -16 -176 0 0 -1 -1 0 0 0 1 0 228-2500-060.dat
1 73 64 -16 -144 0 0 -1 -1 0 0 0 1 0 228-2500-060.dat
1 73 80 -32 -160 0 0 -1 -1 0 0 0 1 0 228-2536.dat
0 STEP
1 73 0 -80 0 1 0 0 0 1 0 0 0 1 228-2500-026.dat
0 STEP
1 73 -96 -32 -192 0 0 1 -1 0 0 0 -1 0 228-2500-023.dat
1 73 -192 -64 0 -1 0 0 0 -1 0 0 0 1 228-2500-026.dat
1 73 -176 -32 -160 0 0 1 -1 0 0 0 -1 0 228-2500-1253.dat
1 73 -192 -32 -48 0 -1 0 1 0 0 0 0 1 228-2500-1253.dat
1 73 -208 -32 -160 0 0 -1 1 0 0 0 -1 0 228-2500-1253.dat
1 73 -192 -32 176 0 -1 0 1 0 0 0 0 1 228-2500-1253.dat
1 73 -224 -16 -176 0 0 -1 1 0 0 0 -1 0 228-2500-060.dat
1 73 -224 -48 -144 0 0 -1 1 0 0 0 -1 0 228-2500-060.dat
1 73 -240 -32 0 0 1 0 1 0 0 0 0 -1 228-2500-026.dat
1 73 -256 -32 -160 0 1 0 1 0 0 0 0 -1 228-2500-017.dat
1 73 -240 -16 -144 0 0 -1 1 0 0 0 -1 0 228-2500-086.dat
1 73 -240 -48 -176 0 0 -1 1 0 0 0 -1 0 228-2500-086.dat
1 73 -240 -16 80 0 0 -1 1 0 0 0 -1 0 228-2500-086.dat
1 73 -240 -48 112 0 0 -1 1 0 0 0 -1 0 228-2500-086.dat
1 73 -256 -32 96 0 1 0 1 0 0 0 0 -1 228-2500-017.dat
1 73 -272 -32 96 0 0 1 1 0 0 0 1 0 228-2500-094.dat
1 73 -240 -32 96 0 1 0 1 0 0 0 0 -1 228-2560.dat
1 73 -224 -16 112 0 0 1 1 0 0 0 1 0 228-2500-060.dat
1 73 -224 -48 80 0 0 1 1 0 0 0 1 0 228-2500-060.dat
1 73 -224 -16 48 0 0 1 1 0 0 0 1 0 228-2500-060.dat
1 73 -224 -48 48 0 0 1 1 0 0 0 1 0 228-2500-060.dat
1 73 -290 -32 96 0 0 1 1 0 0 0 1 0 228-2500-208c02.dat
1 73 -258 -48 112 0 0 1 1 0 0 0 1 0 228-2500-060.dat
1 73 -258 -48 80 0 0 1 1 0 0 0 1 0 228-2500-060.dat
1 73 -258 -16 112 0 0 1 1 0 0 0 1 0 228-2500-060.dat
1 73 -258 -16 80 0 0 1 1 0 0 0 1 0 228-2500-060.dat
1 73 -274 -32 96 0 1 0 1 0 0 0 0 -1 228-2500-1925.dat
1 73 -258 -32 96 0 0 1 -1 0 0 0 -1 0 228-2500-112.dat
1 73 -240 -32 -160 0 0 1 -1 0 0 0 -1 0 228-2500-083.dat
1 73 -272 -32 -160 0 1 0 1 0 0 0 0 -1 228-2500-1925.dat
1 73 -256 -16 -144 0 0 1 1 0 0 0 1 0 228-2500-060.dat
1 73 -256 -16 -176 0 0 1 1 0 0 0 1 0 228-2500-060.dat
1 73 -256 -48 -176 0 0 1 1 0 0 0 1 0 228-2500-060.dat
1 73 -256 -48 -144 0 0 1 1 0 0 0 1 0 228-2500-060.dat
1 73 -272 -32 -160 0 0 1 1 0 0 0 1 0 228-2536.dat
1 73 -192 16 0 -1 0 0 0 -1 0 0 0 1 228-2500-026.dat
0 STEP
1 73 -96 -32 208 0 0 1 -1 0 0 0 -1 0 228-2500-023.dat
1 73 16 -48 192 0 -1 0 -1 0 0 0 0 -1 228-2500-060.dat
1 73 -16 -16 192 0 -1 0 -1 0 0 0 0 -1 228-2500-060.dat
1 73 -176 -48 192 0 -1 0 -1 0 0 0 0 -1 228-2500-060.dat
1 73 -208 -16 192 0 -1 0 -1 0 0 0 0 -1 228-2500-060.dat
1 73 -96 -144 0 -1 0 0 0 1 0 0 0 -1 228-2540c01.dat
1 73 -192 -80 -112 1 0 0 0 1 0 0 0 1 228-2500-136.dat
1 73 -192 -80 112 -1 0 0 0 1 0 0 0 -1 228-2500-136.dat
1 73 -208 -144 -96 -1 0 0 0 1 0 0 0 -1 228-2500-060.dat
1 73 -176 -144 -96 -1 0 0 0 1 0 0 0 -1 228-2500-060.dat
1 73 -208 -144 96 -1 0 0 0 1 0 0 0 -1 228-2500-060.dat
1 73 -176 -144 96 -1 0 0 0 1 0 0 0 -1 228-2500-060.dat
1 73 0 -80 112 -1 0 0 0 1 0 0 0 -1 228-2500-136.dat
1 73 16 -144 96 -1 0 0 0 1 0 0 0 -1 228-2500-060.dat
1 73 -16 -144 96 -1 0 0 0 1 0 0 0 -1 228-2500-060.dat
1 73 16 -144 -80 1 0 0 0 1 0 0 0 1 228-2500-060.dat
1 73 0 -80 -96 1 0 0 0 1 0 0 0 1 228-2500-136.dat
1 73 -16 -144 -80 1 0 0 0 1 0 0 0 1 228-2500-060.dat
