0 FILE main.ldr
0 Name: HippoMech
0 Author: MOCHI KING
1 7 96 -48 -56 0 -1 0 1 0 0 0 0 1 228-2500-029.dat
0 STEP
1 7 96 -64 216 0 0 1 1 0 0 0 1 0 228-2500-060.dat
1 7 96 -32 216 0 0 1 1 0 0 0 1 0 228-2500-060.dat
1 7 96 -32 184 0 0 1 1 0 0 0 1 0 228-2500-060.dat
1 7 96 -64 184 0 0 1 1 0 0 0 1 0 228-2500-060.dat
1 7 96 -48 168 0 0 1 1 0 0 0 1 0 228-2500-060.dat
0 STEP
1 7 96 -48 -312 0 0 1 1 0 0 0 1 0 228-2500-060.dat
1 7 96 -64 -296 0 0 1 1 0 0 0 1 0 228-2500-060.dat
1 7 96 -64 -264 0 0 1 1 0 0 0 1 0 228-2500-060.dat
1 7 96 -32 -264 0 0 1 1 0 0 0 1 0 228-2500-060.dat
1 7 96 -32 -296 0 0 1 1 0 0 0 1 0 228-2500-060.dat
1 7 96 -48 -248 0 0 1 1 0 0 0 1 0 228-2500-060.dat
0 STEP
1 7 112 -48 200 0 0 -1 -1 0 0 0 1 0 228-2500-277.dat
1 7 112 -48 -280 0 0 -1 -1 0 0 0 1 0 228-2500-277.dat
0 STEP
1 7 352 -48 136 0 0 -1 -1 0 0 0 1 0 228-2500-028.dat
0 STEP
1 7 512 -48 168 0 1 0 -1 0 0 0 0 1 228-2500-122.dat
0 STEP
1 7 512 -48 152 0 1 0 -1 0 0 0 0 1 228-2500-168.dat
0 STEP
1 7 512 -48 200 0 -1 0 -1 0 0 0 0 -1 228-2536.dat
0 STEP
1 7 512 -48 200 0 -1 0 -1 0 0 0 0 -1 228-2500-168.dat
0 STEP
1 7 496 -64 184 0 -1 0 -1 0 0 0 0 -1 228-2500-060.dat
1 7 496 -32 184 0 -1 0 -1 0 0 0 0 -1 228-2500-060.dat
1 7 528 -64 184 0 -1 0 -1 0 0 0 0 -1 228-2500-060.dat
1 7 528 -32 184 0 -1 0 -1 0 0 0 0 -1 228-2500-060.dat
0 STEP
1 7 512 -48 200 0 0 1 -1 0 0 0 -1 0 228-2500-1925.dat
0 STEP
1 7 512 -48 232 1 0 0 0 1 0 0 0 1 228-2500-170.dat
1 7 512 -48 248 0 1 0 -1 0 0 0 0 1 228-2500-114.dat
0 STEP
1 7 512 -48 120 0 1 0 -1 0 0 0 0 1 228-2500-233.dat
0 STEP
1 7 192 -48 168 0 1 0 -1 0 0 0 0 1 228-2500-122.dat
0 STEP
1 7 192 -48 152 0 1 0 -1 0 0 0 0 1 228-2500-168.dat
0 STEP
1 7 192 -48 192 0 -1 0 -1 0 0 0 0 -1 228-2536.dat
0 STEP
1 7 192 -48 192 0 -1 0 -1 0 0 0 0 -1 228-2500-168.dat
1 7 176 -64 176 0 -1 0 -1 0 0 0 0 -1 228-2500-060.dat
1 7 176 -32 176 0 -1 0 -1 0 0 0 0 -1 228-2500-060.dat
1 7 208 -32 176 0 -1 0 -1 0 0 0 0 -1 228-2500-060.dat
1 7 208 -64 176 0 -1 0 -1 0 0 0 0 -1 228-2500-060.dat
0 STEP
1 7 192 -48 192 0 0 1 -1 0 0 0 -1 0 228-2500-1925.dat
0 STEP
1 7 192 -48 224 1 0 0 0 1 0 0 0 1 228-2500-170.dat
0 STEP
1 7 192 -48 240 0 1 0 -1 0 0 0 0 1 228-2500-114.dat
0 STEP
1 7 192 -48 120 0 1 0 -1 0 0 0 0 1 228-2500-233.dat
1 7 592 -48 200 0 0 1 1 0 0 0 1 0 228-2500-277.dat
0 STEP
1 7 352 -48 248 0 0 -1 -1 0 0 0 1 0 228-2500-028.dat
0 STEP
1 7 504 -48 136 -1 0 0 0 1 0 0 0 -1 drivetrain-chain.ldr
0 STEP
1 7 352 -48 -232 0 0 -1 -1 0 0 0 1 0 228-2500-028.dat
0 STEP
1 7 512 -48 -256 0 1 0 -1 0 0 0 0 1 228-2500-122.dat
0 STEP
1 7 512 -48 -248 0 1 0 -1 0 0 0 0 1 228-2500-168.dat
0 STEP
1 7 512 -48 -280 0 1 0 -1 0 0 0 0 1 228-2536.dat
0 STEP
1 7 512 -48 -256 0 -1 0 -1 0 0 0 0 -1 228-2500-168.dat
0 STEP
1 7 496 -64 -264 0 -1 0 -1 0 0 0 0 -1 228-2500-060.dat
1 7 528 -64 -264 0 -1 0 -1 0 0 0 0 -1 228-2500-060.dat
1 7 528 -32 -264 0 -1 0 -1 0 0 0 0 -1 228-2500-060.dat
1 7 496 -32 -264 0 -1 0 -1 0 0 0 0 -1 228-2500-060.dat
0 STEP
1 7 512 -48 -280 0 0 -1 -1 0 0 0 1 0 228-2500-1925.dat
0 STEP
1 7 512 -48 -312 1 0 0 0 1 0 0 0 1 228-2500-170.dat
1 7 192 -48 -264 0 1 0 -1 0 0 0 0 1 228-2500-122.dat
0 STEP
1 7 192 -48 -248 0 1 0 -1 0 0 0 0 1 228-2500-168.dat
0 STEP
1 7 192 -48 -280 0 1 0 -1 0 0 0 0 1 228-2536.dat
0 STEP
1 7 192 -48 -272 0 -1 0 -1 0 0 0 0 -1 228-2500-168.dat
0 STEP
1 7 176 -64 -264 0 -1 0 -1 0 0 0 0 -1 228-2500-060.dat
1 7 208 -64 -264 0 -1 0 -1 0 0 0 0 -1 228-2500-060.dat
1 7 208 -32 -264 0 -1 0 -1 0 0 0 0 -1 228-2500-060.dat
1 7 176 -32 -264 0 -1 0 -1 0 0 0 0 -1 228-2500-060.dat
0 STEP
1 7 192 -48 -280 0 0 -1 -1 0 0 0 1 0 228-2500-1925.dat
0 STEP
1 7 192 -48 -312 1 0 0 0 1 0 0 0 1 228-2500-170.dat
1 7 592 -48 -280 0 0 1 1 0 0 0 1 0 228-2500-277.dat
0 STEP
1 7 352 -48 -344 0 0 -1 -1 0 0 0 1 0 228-2500-028.dat
0 STEP
1 7 512 -48 -216 0 1 0 -1 0 0 0 0 1 228-2500-233.dat
1 7 192 -48 -208 0 1 0 -1 0 0 0 0 1 228-2500-233.dat
1 7 504 -48 -192 -1 0 0 0 1 0 0 0 -1 drivetrain-chain.ldr
0 STEP
1 7 416 -64 120 1 0 0 0 0 -1 0 1 0 228-2500-271.dat
1 7 320 -64 120 1 0 0 0 0 -1 0 1 0 228-2500-271.dat
0 STEP
1 7 352 -208 88 1 0 0 0 0 -1 0 1 0 228-2500-059.dat
0 STEP
1 7 496 -64 88 1 0 0 0 1 0 0 0 1 228-2500-060.dat
1 7 496 -32 88 1 0 0 0 1 0 0 0 1 228-2500-060.dat
1 7 464 -32 88 1 0 0 0 1 0 0 0 1 228-2500-060.dat
1 7 464 -64 88 1 0 0 0 1 0 0 0 1 228-2500-060.dat
1 7 432 -32 88 1 0 0 0 1 0 0 0 1 228-2500-060.dat
0 STEP
1 7 512 -48 88 0 0 -1 1 0 0 0 -1 0 228-2560.dat
1 7 432 -160 -56 0 -1 0 1 0 0 0 0 1 228-2500-263.dat
0 STEP
1 7 416 -160 104 0 0 1 1 0 0 0 1 0 228-2500-020.dat
0 STEP
1 7 448 -144 120 0 -1 0 1 0 0 0 0 1 228-2500-061.dat
1 7 448 -176 120 0 -1 0 1 0 0 0 0 1 228-2500-061.dat
1 7 416 -144 120 0 -1 0 1 0 0 0 0 1 228-2500-061.dat
1 7 384 -176 120 0 -1 0 1 0 0 0 0 1 228-2500-061.dat
0 STEP
1 7 432 -160 120 0 0 -1 -1 0 0 0 1 0 228-2560.dat
1 7 432 -160 75 1 0 0 0 1 0 0 0 1 228-2500-170.dat
1 7 432 -160 47 1 0 0 0 1 0 0 0 1 228-2500-170.dat
1 7 432 -160 19 1 0 0 0 1 0 0 0 1 228-2500-170.dat
0 STEP
1 7 405 -216 -24 1 0 0 0 1 0 0 0 1 swish-rachet.ldr
1 7 432 -160 -160 1 0 0 0 1 0 0 0 1 228-2500-170.dat
1 7 432 -160 -132 1 0 0 0 1 0 0 0 1 228-2500-170.dat
1 7 432 -160 -104 1 0 0 0 1 0 0 0 1 228-2500-170.dat
0 STEP
1 7 320 -112 -40 0 -1 0 -1 0 0 0 0 -1 228-2500-263.dat
1 7 320 -112 75 1 0 0 0 1 0 0 0 1 228-2500-170.dat
1 7 320 -112 47 1 0 0 0 1 0 0 0 1 228-2500-170.dat
1 7 320 -112 19 -1 0 0 0 1 0 0 0 -1 228-2500-170.dat
1 7 320 -112 5 -1 0 0 0 1 0 0 0 -1 228-2500-228.dat
1 7 320 -112 -32 -1 0 0 0 1 0 0 0 -1 228-2500-420.dat
0 FILE drivetrain-chain.ldr
0 Author: LDCad
0 !KEYWORDS flexible, chain
0 !LDCAD CONTENT [type=path] [addFallBack=default] [looped=true] [displayKind=links] [curveStep=16] [displayLenCor=0]

0 !LDCAD PATH_POINT [type=circle] [posOri=-8 0 8 1 0 0 0 1 0 0 0 1] [prevCPDist=25] [nextCPDist=25] [cirR=41] [cirDir=xyCW] [prevYRoll=0] [nextYRoll=0]
0 !LDCAD PATH_POINT [type=circle] [posOri=312 0 8 1 0 0 0 1 0 0 0 1] [prevCPDist=25] [nextCPDist=25] [cirR=41] [cirDir=xyCW] [prevYRoll=0] [nextYRoll=0]

0 !LDCAD PATH_SKIN [donCol=16] [donOri=0 1 0 0 0 1 1 0 0] [donPart=228-2500-230.dat] [donYSize=100%] [donCen=partCen] [donCenYOfs=0] [donFinScale=none] [donPlace=refsStat] [donYAlign=1] [donInline=false] [segSize=16] [segSizeTol=0] [segsCnt=0] [segsGrp=0] [segsMaxMerge=1] [segsMrgAng=0] [segsMrgRollAng=0] [segsEdgeDelKind=keepFirstLeft]

0 !LDCAD GENERATED [generator=LDCad 1.7 Alpha 2a]
0 //This is the fallback LDraw content for above PATH configuration.
0 // Do not edit, any changes will be lost upon regeneration.
0 // The path is approx 358.29 mm (895.72) and exists out of 56 segments.

0 //Some general hints about the document.
0 UNOFFICIAL PART
0 BFC CERTIFY CCW

0 //Segments
1 16 -45.81011305 -15.67879527 8 0 0.9799247 -0.19936793 0 0.19936793 0.9799247 1 0 0 228-2500-230.dat
1 16 -36.91465806 -28.97807648 8 0 0.83120508 -0.55596594 0 0.55596594 0.83120508 1 0 0 228-2500-230.dat
1 16 -23.60152235 -37.8527831 8 0 0.55466916 -0.83207098 0 0.83207098 0.55466916 1 0 0 228-2500-230.dat
1 16 -7.88740941 -40.86387168 8 0 0.18819304 -0.98213206 0 0.98213206 0.18819304 1 0 0 228-2500-230.dat
1 16 8.112038 -40.99684776 8 0 0.008311 -0.99996546 0 0.99996546 0.008311 1 0 0 228-2500-230.dat
1 16 24.11203776 -40.99959716 8 0 0.00017184 -0.99999999 0 0.99999999 0.00017184 1 0 0 228-2500-230.dat
1 16 40.11203776 -40.9999541 8 0 0.00002231 -1 0 1 0.00002231 1 0 0 228-2500-230.dat
1 16 56.11203776 -40.99999979 8 0 0.00000286 -1 0 1 0.00000286 1 0 0 228-2500-230.dat
1 16 72.11203776 -40.99999997 8 0 0.00000001 -1 0 1 0.00000001 1 0 0 228-2500-230.dat
1 16 88.11203776 -40.99999999 8 0 0 -1 0 1 0 1 0 0 228-2500-230.dat
1 16 104.11203776 -41 8 0 0 -1 0 1 0 1 0 0 228-2500-230.dat
1 16 120.11203776 -41 8 0 0 -1 0 1 0 1 0 0 228-2500-230.dat
1 16 136.11203776 -41 8 0 0 -1 0 1 0 1 0 0 228-2500-230.dat
1 16 152.11203776 -41 8 0 0 -1 0 1 0 1 0 0 228-2500-230.dat
1 16 168.11203776 -41 8 0 0 -1 0 1 0 1 0 0 228-2500-230.dat
1 16 184.11203776 -41 8 0 0 -1 0 1 0 1 0 0 228-2500-230.dat
1 16 200.11203776 -41 8 0 0 -1 0 1 0 1 0 0 228-2500-230.dat
1 16 216.11203776 -41 8 0 0 -1 0 1 0 1 0 0 228-2500-230.dat
1 16 232.11203776 -41 8 0 0 -1 0 1 0 1 0 0 228-2500-230.dat
1 16 248.11203776 -41 8 0 0 -1 0 1 0 1 0 0 228-2500-230.dat
1 16 264.11203776 -41 8 0 0 -1 0 1 0 1 0 0 228-2500-230.dat
1 16 280.11203776 -41 8 0 0 -1 0 1 0 1 0 0 228-2500-230.dat
1 16 296.11203776 -41 8 0 0 -1 0 1 0 1 0 0 228-2500-230.dat
1 16 312.11203768 -40.99846246 8 0 -0.0000961 -1 0 1 -0.0000961 1 0 0 228-2500-230.dat
1 16 327.7867281 -37.78846554 8 0 -0.20062481 -0.97966815 0 0.97966815 -0.20062481 1 0 0 228-2500-230.dat
1 16 341.06291968 -28.85858664 8 0 -0.55811743 -0.82976197 0 0.82976197 -0.55811743 1 0 0 228-2500-230.dat
1 16 349.90513932 -15.52385185 8 0 -0.83342092 -0.55263873 0 0.55263873 -0.83342092 1 0 0 228-2500-230.dat
1 16 352.96401126 0.18102963 8 0 -0.98155509 -0.1911795 0 0.1911795 -0.98155509 1 0 0 228-2500-230.dat
1 16 349.77332382 15.85966202 8 0 -0.97991452 0.19941797 0 -0.19941797 -0.97991452 1 0 0 228-2500-230.dat
1 16 340.82032219 29.12027143 8 0 -0.82878809 0.5595626 0 -0.5595626 -0.82878809 1 0 0 228-2500-230.dat
1 16 327.4709995 37.94045192 8 0 -0.55126128 0.83433267 0 -0.83433267 -0.55126128 1 0 0 228-2500-230.dat
1 16 311.74581794 40.89319041 8 0 -0.18454616 0.98282385 0 -0.98282385 -0.18454616 1 0 0 228-2500-230.dat
1 16 295.7461641 40.99843787 8 0 -0.00657797 0.99997836 0 -0.99997836 -0.00657797 1 0 0 228-2500-230.dat
1 16 279.74616415 40.99981098 8 0 -0.00008582 1 0 -1 -0.00008582 1 0 0 228-2500-230.dat
1 16 263.74616416 40.99997979 8 0 -0.00001055 1 0 -1 -0.00001055 1 0 0 228-2500-230.dat
1 16 247.74616416 40.99999628 8 0 -0.00000103 1 0 -1 -0.00000103 1 0 0 228-2500-230.dat
1 16 231.74616416 40.99999942 8 0 -0.0000002 1 0 -1 -0.0000002 1 0 0 228-2500-230.dat
1 16 215.74616416 40.9999999 8 0 -0.00000003 1 0 -1 -0.00000003 1 0 0 228-2500-230.dat
1 16 199.74616416 40.99999998 8 0 0 1 0 -1 0 1 0 0 228-2500-230.dat
1 16 183.74616416 41 8 0 0 1 0 -1 0 1 0 0 228-2500-230.dat
1 16 167.74616416 41 8 0 0 1 0 -1 0 1 0 0 228-2500-230.dat
1 16 151.74616416 41 8 0 0 1 0 -1 0 1 0 0 228-2500-230.dat
1 16 135.74616416 41 8 0 0 1 0 -1 0 1 0 0 228-2500-230.dat
1 16 119.74616416 41 8 0 0 1 0 -1 0 1 0 0 228-2500-230.dat
1 16 103.74616416 41 8 0 0 1 0 -1 0 1 0 0 228-2500-230.dat
1 16 87.74616416 41 8 0 0 1 0 -1 0 1 0 0 228-2500-230.dat
1 16 71.74616416 41 8 0 0 1 0 -1 0 1 0 0 228-2500-230.dat
1 16 55.74616416 41 8 0 0 1 0 -1 0 1 0 0 228-2500-230.dat
1 16 39.74616416 41 8 0 0 1 0 -1 0 1 0 0 228-2500-230.dat
1 16 23.74616416 41 8 0 0 1 0 -1 0 1 0 0 228-2500-230.dat
1 16 7.74616416 41 8 0 0 1 0 -1 0 1 0 0 228-2500-230.dat
1 16 -8.25383577 40.99844892 8 0 0.00009694 1 0 -1 0.00009694 1 0 0 228-2500-230.dat
1 16 -23.92283213 37.76077184 8 0 0.20235482 0.97931227 0 -0.97931227 0.20235482 1 0 0 228-2500-230.dat
1 16 -37.16954474 28.78722152 8 0 0.56084689 0.82791954 0 -0.82791954 0.56084689 1 0 0 228-2500-230.dat
1 16 -45.97073525 15.42537114 8 0 0.83511565 0.55007441 0 -0.55007441 0.83511565 1 0 0 228-2500-230.dat
1 16 -49 0 8 0 0.98125747 0.19270127 0 -0.19270127 0.98125747 1 0 0 228-2500-230.dat
0 FILE swish-rachet.ldr
0 Replace 24tooth gear with rachet, replace 1x2 with pawl
0 Author: MOCHI KING
1 7 -5 8 8 1 0 0 0 0 1 0 -1 0 228-2500-032.dat
0 STEP
1 7 27 24 -16 0 0 1 1 0 0 0 1 0 228-2500-145.dat
1 7 -37 24 -16 0 1 0 1 0 0 0 0 -1 228-2500-062.dat
1 7 -5 24 -16 0 1 0 1 0 0 0 0 -1 228-2500-062.dat
1 7 27 24 -16 0 1 0 1 0 0 0 0 -1 228-2500-062.dat
0 STEP
1 7 27 24 -32 0 0 1 1 0 0 0 1 0 228-2500-145.dat
0 STEP
1 7 -37 56 0 0 1 0 1 0 0 0 0 -1 228-2500-065a.dat
0 STEP
1 7 27 -40 -48 1 0 0 0 1 0 0 0 1 228-2500-079.dat
0 STEP
1 7 27 -40 14 1 0 0 0 1 0 0 0 1 228-2500-214.dat
1 7 27 -40 -10 1 0 0 0 1 0 0 0 1 228-2500-462.dat
1 7 27 -40 -34 1 0 0 0 1 0 0 0 1 228-2500-168.dat
0 STEP
1 7 -37 -40 -18 0.642788 0 -0.766044 -0.766044 0 -0.642788 0 1 0 228-2500-001.dat
1 7 -37 -40 -18 1 0 0 0 1 0 0 0 1 228-2500-062.dat
1 7 -24.743289 -29.715398 -18 1 0 0 0 -1 0 0 0 -1 228-2500-086.dat
0 STEP
1 7 -5 8 -40 1 0 0 0 0 1 0 -1 0 228-2500-032.dat
0 STEP
1 7 27 -40 -66 1 0 0 0 1 0 0 0 1 228-2500-214.dat
1 7 27 -40 -74 1 0 0 0 1 0 0 0 1 228-2500-168.dat
0 STEP
1 7 27 56 32 0 -1 0 -1 0 0 0 0 -1 228-2500-214.dat
1 7 27 56 -64 1 0 0 0 1 0 0 0 1 228-2500-214.dat
