0 Name: sammy
0 Author: MOCHI KING
1 4 0 8 0 1 0 0 0 1 0 0 0 1 228-2500-005-v2.dat
1 4 0 8 0 0 0 -1 0 1 0 1 0 0 228-2500-135-v2.dat
1 4 0 -112 -176 0 0 -1 0 1 0 1 0 0 228-2500-165.dat
1 4 0 -32 -176 0 1 0 0 0 1 1 0 0 228-2500-005-v2.dat
1 4 0 -112 -176 0 0 1 0 1 0 -1 0 0 228-2500-073.dat
1 4 16 -48 -176 0 0 1 -0.422618 0.906308 0 -0.906308 -0.422618 0 228-2500-061.dat
1 4 -16 -11.292765 -228.427287 0 1 0 -0.906292 0 0.422653 0.422653 0 0.906292 228-2500-149.dat
1 4 32 -47.997563 -240 0 -1 0 -1 0 0.000038 -0.000038 0 -1 228-2500-149.dat
1 4 0 48 -176 0 0 -1 0.882948 0.469472 0 0.469472 -0.882948 0 228-2500-061.dat
1 4 -16 110.715181 -163.240452 0 1 0 -0.199368 0 0.979925 0.979925 0 0.199368 228-2500-149.dat
1 4 16 63.483001 -238.098926 0 1 0 0.970296 0 0.241922 0.241922 0 -0.970296 228-2500-149.dat
1 4 0 -168 -400 0 1 0 1 0 0 0 0 -1 228-5371-013.dat
1 4 16 -104 -272 0 0 -1 1 0 0 0 -1 0 228-2500-086.dat
