0 project 1
0 Name: P1
0 Author: Oreo
1 112 0 -64 0 -1 0 0 0 1 0 0 0 -1 228-2500-026.dat
1 14 0 -96 -16 0 1 0 -1 0 0 0 0 1 228-2500-1253.dat
1 14 -16 -96 -160 0 0 -1 1 0 0 0 -1 0 228-2500-1253.dat
1 14 0 -96 176 0 1 0 -1 0 0 0 0 1 228-2500-1253.dat
1 14 16 -96 -160 0 0 1 -1 0 0 0 -1 0 228-2500-1253.dat
0 STEP
0 STEP
1 89 32 -112 -176 0 0 -1 0 1 0 1 0 0 228-2500-060.dat
1 89 32 -80 -144 0 0 -1 0 1 0 1 0 0 228-2500-060.dat
1 5 48 -96 0 0 -1 0 1 0 0 0 0 1 228-2500-026.dat
1 14 48 -96 -160 0 1 0 -1 0 0 0 0 1 228-2500-017.dat
1 14 64 -96 96 0 -1 0 -1 0 0 0 0 -1 228-2500-017.dat
1 14 48 -80 -176 0 0 -1 -1 0 0 0 1 0 228-2500-060.dat
1 14 48 -112 -144 0 0 -1 -1 0 0 0 1 0 228-2500-060.dat
1 14 48 -112 80 0 0 1 -1 0 0 0 -1 0 228-2500-060.dat
1 14 48 -80 112 0 0 -1 -1 0 0 0 1 0 228-2500-060.dat
1 11 80 -96 96 0 0 -1 -1 0 0 0 1 0 228-2500-094.dat
1 11 32 -96 104 0 -1 0 -1 0 0 0 0 -1 228-2560.dat
1 10 -216 280 72 0 0 -1 -1 0 0 0 1 0 228-2500-060.dat
1 10 80 -96 96 0 -1 0 -1 0 0 0 0 -1 228-2500-1925.dat
1 10 72 -96 96 0 0 1 -1 0 0 0 -1 0 228-2500-208c02.dat
1 84 56 -96 -152 0 0 -1 -1 0 0 0 1 0 228-2500-083.dat
1 84 80 -96 -152 0 0 -1 -1 0 0 0 1 0 228-2536.dat
1 216 0 -128 -8 1 0 0 0 -1 0 0 0 -1 228-2500-026.dat
1 216 -96 -96 -192 0 0 -1 1 0 0 0 -1 0 228-2500-023.dat
1 112 -192 -128 0 1 0 0 0 -1 0 0 0 -1 228-2500-026.dat
1 14 -192 -96 -16 0 -1 0 1 0 0 0 0 1 228-2500-1253.dat
1 14 -176 -96 -160 0 0 1 -1 0 0 0 -1 0 228-2500-1253.dat
1 14 -192 -96 176 0 -1 0 1 0 0 0 0 1 228-2500-1253.dat
1 14 -208 -96 -160 0 0 -1 1 0 0 0 -1 0 228-2500-1253.dat
1 89 -224 -80 -176 0 0 1 0 -1 0 1 0 0 228-2500-060.dat
1 89 -224 -112 -144 0 0 1 0 -1 0 1 0 0 228-2500-060.dat
1 5 -240 -96 0 0 1 0 -1 0 0 0 0 1 228-2500-026.dat
1 14 -240 -96 -160 0 -1 0 1 0 0 0 0 1 228-2500-017.dat
1 14 -256 -96 96 0 1 0 1 0 0 0 0 -1 228-2500-017.dat
1 14 -240 -112 -176 0 0 1 1 0 0 0 1 0 228-2500-060.dat
1 14 -240 -80 -144 0 0 1 1 0 0 0 1 0 228-2500-060.dat
1 14 -240 -80 80 0 0 -1 1 0 0 0 -1 0 228-2500-060.dat
1 14 -240 -112 112 0 0 1 1 0 0 0 1 0 228-2500-060.dat
1 11 -272 -96 96 0 0 1 1 0 0 0 1 0 228-2500-094.dat
1 11 -224 -96 104 0 1 0 1 0 0 0 0 -1 228-2560.dat
1 10 -272 -96 96 0 1 0 1 0 0 0 0 -1 228-2500-1925.dat
1 10 -264 -96 96 0 0 -1 1 0 0 0 -1 0 228-2500-208c02.dat
1 84 -248 -96 -152 0 0 1 1 0 0 0 1 0 228-2500-083.dat
1 84 -272 -96 -152 0 0 1 1 0 0 0 1 0 228-2536.dat
1 216 -192 -64 -8 -1 0 0 0 1 0 0 0 -1 228-2500-026.dat
1 212 -104 -192 -24 0 0 1 0 1 0 -1 0 0 228-2540c01.dat
1 212 -640 72 136 0 0 1 0 1 0 -1 0 0 228-2500-134-v2.dat
1 216 -872 -104 -568 0 0 1 0 1 0 -1 0 0 228-2500-060.dat
1 216 -80 -120 408 0 0 1 0 1 0 -1 0 0 228-2500-060.dat
